<svg width="114.000000" height="99.000000" viewBox="0 0 114 99" fill="none" xmlns="http://www.w3.org/2000/svg" xmlns:xlink="http://www.w3.org/1999/xlink">
	<desc>
			Created with Pixso.
	</desc>
	<defs/>
	<rect width="114.000000" height="99.000000" fill="#FFFFFF" fill-opacity="0"/>
	<circle cx="38.399902" cy="60.599953" r="38.400002" fill="#FF9900" fill-opacity="1.000000"/>
	<circle cx="38.399902" cy="60.599953" r="38.080647" stroke="#FF9900" stroke-opacity="1.000000" stroke-width="0.638710"/>
	<path d="M73.0066 30.0194C67.3625 30.0194 62.7871 34.5947 62.7871 40.2387C62.7871 45.8827 67.3625 50.4581 73.0066 50.4581C78.6506 50.4581 83.2258 45.8827 83.2258 40.2387C83.2258 34.5947 78.6506 30.0194 73.0066 30.0194ZM61.5098 40.2387C61.5098 33.8892 66.657 28.7419 73.0066 28.7419C79.356 28.7419 84.5034 33.8892 84.5034 40.2387C84.5034 46.5882 79.356 51.7355 73.0066 51.7355C66.657 51.7355 61.5098 46.5882 61.5098 40.2387Z" fill="#000000" fill-opacity="1.000000" fill-rule="evenodd"/>
	<path d="M73.3259 1.28078C71.5708 1.28078 69.8877 1.97797 68.6467 3.21896C67.4058 4.45996 66.7085 6.14311 66.7085 7.89815L66.7085 8.51506L66.7085 8.51761C66.7034 9.81023 66.3203 11.0731 65.6067 12.1508C64.8928 13.2286 63.8796 14.0741 62.6914 14.5833C62.6118 14.6174 62.5259 14.6351 62.4392 14.6351L62.2805 14.6351C61.1023 15.1259 59.8066 15.2665 58.5488 15.0385C57.2456 14.8022 56.0432 14.181 55.0967 13.2549L55.0916 13.25L54.8738 13.0322C54.2593 12.417 53.5291 11.9286 52.7258 11.5956C51.9226 11.2626 51.0615 11.0912 50.1919 11.0912C49.3223 11.0912 48.4609 11.2626 47.6577 11.5956C46.8545 11.9286 46.1245 12.4167 45.51 13.032L45.5095 13.0325C44.8943 13.647 44.4062 14.3769 44.0732 15.1802C43.74 15.9836 43.5686 16.8446 43.5686 17.7143C43.5686 18.5839 43.74 19.445 44.0732 20.2483C44.4062 21.0517 44.8943 21.7815 45.5095 22.3961L45.7324 22.619C46.6584 23.5658 47.2798 24.7682 47.5161 26.0713C47.751 27.3678 47.5945 28.7047 47.0662 29.9115C46.6057 31.1517 45.7847 32.2259 44.7085 32.9957C43.6267 33.7693 42.3372 34.1997 41.0076 34.2308L40.9927 34.231L40.666 34.231C38.9109 34.231 37.2278 34.9282 35.9868 36.1692C34.7458 37.4102 34.0486 39.0933 34.0486 40.8484C34.0486 42.6034 34.7458 44.2866 35.9868 45.5276C37.2278 46.7686 38.9109 47.4657 40.666 47.4657L41.2854 47.4657C42.5781 47.4709 43.8411 47.8539 44.9187 48.5676C45.9954 49.2807 46.8403 50.2929 47.3499 51.4796C47.8833 52.6904 48.0425 54.0332 47.8064 55.3351C47.5701 56.6382 46.9487 57.8407 46.0227 58.7874L46.0178 58.7924L45.8 59.0101C45.1848 59.6247 44.6965 60.3548 44.3635 61.1581C44.0305 61.9615 43.8591 62.8225 43.8591 63.6922C43.8591 64.5618 44.0305 65.4229 44.3635 66.2262C44.6965 67.0296 45.1846 67.7594 45.7998 68.374L45.8003 68.3745C46.4148 68.9897 47.1448 69.4778 47.948 69.8108C48.7515 70.1438 49.6125 70.3152 50.4822 70.3152C51.3518 70.3152 52.2129 70.1438 53.0161 69.8108C53.8196 69.4778 54.5493 68.9897 55.1638 68.3745L55.387 68.1515C56.3335 67.2254 57.5361 66.6042 58.8391 66.368C60.1355 66.1329 61.4724 66.2896 62.6792 66.8178C63.9194 67.2782 64.9937 68.0993 65.7634 69.1756C66.5371 70.2573 66.9675 71.5468 66.9985 72.8764L66.9988 72.8914L66.9988 73.218C66.9988 74.973 67.696 76.6562 68.937 77.8972C70.178 79.1382 71.8611 79.8353 73.6162 79.8353C75.3713 79.8353 77.0544 79.1382 78.2954 77.8972C79.5364 76.6562 80.2336 74.973 80.2336 73.218L80.2336 72.6011L80.2336 72.5985C80.2388 71.3059 80.6218 70.043 81.3354 68.9653C82.0486 67.8886 83.0605 67.0437 84.2471 66.5343C85.458 66.0006 86.8008 65.8415 88.103 66.0776C89.406 66.3139 90.6084 66.9351 91.5552 67.8612L91.5603 67.8661L91.7778 68.0839C92.3926 68.6992 93.1226 69.1875 93.926 69.5205C94.7292 69.8535 95.5903 70.0249 96.46 70.0249C97.3296 70.0249 98.1907 69.8535 98.9941 69.5205C99.7974 69.1875 100.527 68.6994 101.142 68.0841L101.142 68.0836C101.758 67.4691 102.246 66.7393 102.579 65.9359C102.912 65.1326 103.083 64.2715 103.083 63.4019C103.083 62.5322 102.912 61.6711 102.579 60.8678C102.246 60.0645 101.758 59.3346 101.142 58.7201L100.919 58.4971C99.9932 57.5504 99.3721 56.3479 99.1357 55.0448C98.8997 53.7428 99.0588 52.3998 99.5925 51.189C100.102 50.0024 100.947 48.9904 102.023 48.2773C103.101 47.5636 104.364 47.1806 105.657 47.1754L105.659 47.1754L105.986 47.1754C107.741 47.1754 109.424 46.4782 110.665 45.2372C111.906 43.9963 112.603 42.3131 112.603 40.5581C112.603 38.803 111.906 37.1199 110.665 35.8789C109.424 34.6379 107.741 33.9407 105.986 33.9407L105.369 33.9407L105.366 33.9407C104.074 33.9355 102.811 33.5525 101.733 32.8388C100.655 32.1251 99.8098 31.1118 99.3008 29.9237C99.2666 29.844 99.2488 29.7582 99.2488 29.6714L99.2488 29.5126C98.7581 28.3345 98.6174 27.0387 98.8455 25.781C99.0818 24.4779 99.7029 23.2755 100.629 22.3288L100.634 22.3237L100.852 22.106C101.467 21.4914 101.955 20.7614 102.288 19.958C102.621 19.1547 102.793 18.2936 102.793 17.424C102.793 16.5543 102.621 15.6932 102.288 14.8899C101.955 14.0866 101.467 13.3568 100.852 12.7422L100.852 12.7417C100.237 12.1264 99.5071 11.6383 98.7036 11.3053C97.9004 10.9723 97.0393 10.8009 96.1697 10.8009C95.3 10.8009 94.439 10.9723 93.6357 11.3053C92.8323 11.6383 92.1025 12.1264 91.4878 12.7417L91.2649 12.9646C90.3181 13.8907 89.1157 14.5119 87.8127 14.7482C86.5107 14.9843 85.168 14.8252 83.957 14.2916C82.7703 13.7823 81.7583 12.9373 81.0452 11.8605C80.3315 10.7828 79.9485 9.51991 79.9434 8.22729L79.9434 8.22475L79.9434 7.89815C79.9434 6.14311 79.2461 4.45996 78.0051 3.21896C76.7642 1.97797 75.0808 1.28078 73.3259 1.28078ZM67.741 2.31331C69.2222 0.832123 71.2312 0 73.3259 0C75.4207 0 77.4294 0.832123 78.9106 2.31331C80.3918 3.79451 81.2241 5.80344 81.2241 7.89815L81.2241 8.2222C81.2241 8.2226 81.2241 8.22299 81.2241 8.22339C81.2285 9.26581 81.5374 10.2842 82.113 11.1534C82.6887 12.0228 83.5063 12.7049 84.4648 13.1158L84.4712 13.1185C85.4485 13.5499 86.533 13.6786 87.5842 13.4879C88.6343 13.2975 89.6035 12.7972 90.3669 12.0514C90.3677 12.0506 90.3684 12.0498 90.3694 12.049L90.5818 11.8365C91.3152 11.1023 92.1865 10.5196 93.1453 10.1221C94.104 9.72469 95.1318 9.5201 96.1697 9.5201C97.2075 9.5201 98.2354 9.72469 99.1941 10.1221C100.153 10.5195 101.024 11.1019 101.757 11.836C102.491 12.5695 103.074 13.4406 103.471 14.3994C103.869 15.3583 104.073 16.386 104.073 17.424C104.073 18.4619 103.869 19.4897 103.471 20.4485C103.074 21.4073 102.491 22.2784 101.757 23.0119L101.545 23.2244C101.544 23.2252 101.543 23.226 101.542 23.2269C100.796 23.9902 100.296 24.9594 100.106 26.0095C99.915 27.0608 100.044 28.1451 100.475 29.1225C100.511 29.204 100.53 29.2921 100.53 29.3811L100.53 29.5361C100.945 30.4442 101.606 31.2187 102.44 31.771C103.309 32.3465 104.328 32.6555 105.37 32.6599L105.986 32.6599C108.081 32.6599 110.089 33.492 111.571 34.9732C113.052 36.4544 113.884 38.4633 113.884 40.5581C113.884 42.6528 113.052 44.6617 111.571 46.1429C110.089 47.6241 108.081 48.4562 105.986 48.4562L105.662 48.4562C105.661 48.4562 105.661 48.4562 105.661 48.4562C104.618 48.4606 103.6 48.7696 102.731 49.3452C101.861 49.921 101.179 50.7385 100.768 51.697L100.765 51.7033C100.334 52.6807 100.205 53.765 100.396 54.8163C100.586 55.8664 101.087 56.8355 101.832 57.5988C101.833 57.5997 101.834 57.6006 101.835 57.6015L102.047 57.8139C102.782 58.5474 103.364 59.4186 103.762 60.3773C104.159 61.3362 104.364 62.3639 104.364 63.4019C104.364 64.4398 104.159 65.4676 103.762 66.4264C103.364 67.3851 102.782 68.2561 102.048 68.9895C101.314 69.7238 100.443 70.3062 99.4846 70.7037C98.5256 71.1011 97.498 71.3057 96.46 71.3057C95.4221 71.3057 94.3943 71.1011 93.4355 70.7037C92.4768 70.3062 91.6057 69.7238 90.8723 68.9895L90.6597 68.7768C90.6587 68.7759 90.658 68.7751 90.657 68.7742C89.8936 68.0285 88.9246 67.5283 87.8745 67.3379C86.8232 67.1472 85.7388 67.2759 84.7615 67.7073L84.7551 67.7101C83.7966 68.1209 82.979 68.803 82.4033 69.6725C81.8276 70.5416 81.5188 71.56 81.5144 72.6024C81.5144 72.6028 81.5144 72.6032 81.5144 72.6036L81.5144 73.218C81.5144 75.3127 80.6821 77.3216 79.2009 78.8028C77.7197 80.284 75.7109 81.1161 73.6162 81.1161C71.5215 81.1161 69.5125 80.284 68.0312 78.8028C66.5503 77.3216 65.718 75.3127 65.718 73.218L65.718 72.899C65.6917 71.829 65.3445 70.7914 64.7217 69.9206C64.0974 69.0479 63.2251 68.3832 62.2183 68.0128C62.2114 68.0103 62.2046 68.0077 62.198 68.0049C62.1921 68.0026 62.1863 68.0002 62.1807 67.9976C61.2031 67.5662 60.1189 67.4376 59.0676 67.6282C58.0176 67.8186 57.0483 68.3189 56.2849 69.0646C56.2842 69.0655 56.2832 69.0663 56.2825 69.0671L56.0701 69.2796C55.3364 70.014 54.4653 70.5965 53.5066 70.994C52.5479 71.3914 51.52 71.596 50.4822 71.596C49.4441 71.596 48.4165 71.3914 47.4575 70.994C46.4988 70.5965 45.6277 70.014 44.894 69.2796C44.1602 68.5462 43.5776 67.6753 43.1802 66.7167C42.7827 65.7579 42.5781 64.7301 42.5781 63.6922C42.5781 62.6542 42.7827 61.6265 43.1802 60.6676C43.5776 59.7089 44.1602 58.838 44.8943 58.1045L45.1072 57.8918C45.1079 57.891 45.1086 57.8901 45.1096 57.8893C45.8555 57.1259 46.3557 56.1568 46.5461 55.1066C46.7368 54.0553 46.6079 52.971 46.1765 51.9936L46.1738 51.9873C45.7629 51.0288 45.0811 50.2113 44.2114 49.6355C43.3423 49.0599 42.324 48.7509 41.2815 48.7465C41.281 48.7465 41.2808 48.7465 41.2803 48.7465L40.666 48.7465C38.5713 48.7465 36.5623 47.9144 35.0811 46.4332C33.5999 44.952 32.7678 42.9431 32.7678 40.8484C32.7678 38.7537 33.5999 36.7447 35.0811 35.2635C36.5623 33.7823 38.5713 32.9502 40.666 32.9502L40.9849 32.9502C42.0549 32.9237 43.0925 32.5767 43.9634 31.9539C44.8359 31.3297 45.5007 30.4574 45.8711 29.4504C45.8757 29.4377 45.8809 29.4252 45.8862 29.4129C46.3176 28.4354 46.4463 27.3511 46.2559 26.2998C46.0654 25.2496 45.5649 24.2805 44.8193 23.5171L44.6042 23.3022C43.8701 22.5687 43.2874 21.6976 42.8899 20.7388C42.4924 19.78 42.2878 18.7522 42.2878 17.7143C42.2878 16.6763 42.4924 15.6486 42.8899 14.6897C43.2874 13.7309 43.8701 12.8598 44.6042 12.1263C45.3376 11.3922 46.2087 10.8098 47.1672 10.4125C48.126 10.015 49.1538 9.81041 50.1919 9.81041C51.2297 9.81041 52.2576 10.015 53.2163 10.4125C54.175 10.8099 55.0459 11.3923 55.7795 12.1266L55.9946 12.3418C56.7581 13.0876 57.7273 13.5878 58.7773 13.7783C59.8286 13.9689 60.9128 13.8402 61.8904 13.4088C61.9719 13.3728 62.0598 13.3543 62.1489 13.3543L62.304 13.3543C63.2119 12.9391 63.9866 12.2776 64.5388 11.4437C65.1143 10.5745 65.4233 9.55612 65.4277 8.5137L65.4277 7.89815C65.4277 5.80344 66.2598 3.79451 67.741 2.31331Z" fill="#000000" fill-opacity="1.000000" fill-rule="evenodd"/>
</svg>
