<svg width="114.000000" height="99.000000" viewBox="0 0 114 99" fill="none" xmlns="http://www.w3.org/2000/svg" xmlns:xlink="http://www.w3.org/1999/xlink">
	<desc>
			Created with Pixso.
	</desc>
	<defs>
		<clipPath id="clip406480_4302">
			<rect width="71.399994" height="79.200005" transform="translate(42.599854 0.000000)" fill="white" fill-opacity="0"/>
		</clipPath>
	</defs>
	<rect width="114.000000" height="99.000000" fill="#FFFFFF" fill-opacity="0"/>
	<circle cx="36.000000" cy="63.000000" r="36.000000" fill="#FF9900" fill-opacity="1.000000"/>
	<rect width="71.399994" height="79.200005" transform="translate(42.599854 0.000000)" fill="#FFFFFF" fill-opacity="0"/>
	<g clip-path="url(#clip406480_4302)">
		<path d="M60.6782 9.29419C60.8396 9.01303 61.1975 8.91653 61.4773 9.07867L95.707 28.9032C95.9868 29.0653 96.083 29.4247 95.9216 29.7058C95.76 29.987 95.4023 30.0835 95.1223 29.9213L60.8928 10.0968C60.6128 9.93469 60.5168 9.57535 60.6782 9.29419Z" fill="#000000" fill-opacity="1.000000" fill-rule="evenodd"/>
		<path d="M74.1011 1.12491C75.3777 0.38797 76.8259 0 78.2998 0C79.7739 0 81.2219 0.38797 82.4985 1.12491C82.499 1.12515 82.4995 1.12537 82.4998 1.12561L109.8 16.7288C111.075 17.4654 112.135 18.5247 112.872 19.8003C113.609 21.0758 113.998 22.5229 114 23.9962L114 55.2038C113.998 56.6771 113.609 58.1241 112.872 59.3997C112.135 60.6753 111.075 61.7346 109.8 62.4713L109.798 62.4726L82.4998 78.0744C82.4995 78.0745 82.4995 78.0746 82.4993 78.0748C81.2224 78.8119 79.7742 79.2 78.2998 79.2C76.8257 79.2 75.3774 78.8119 74.1006 78.0748C74.1003 78.0746 74.1001 78.0745 74.0999 78.0744L46.8022 62.4726L46.7998 62.4713C45.5242 61.7346 44.4646 60.6753 43.7273 59.3997C42.9902 58.1241 42.6013 56.6771 42.5999 55.2038L42.5999 23.9962C42.6013 22.5229 42.9902 21.0758 43.7273 19.8003C44.4646 18.5247 45.5242 17.4654 46.7998 16.7288L46.8022 16.7274L74.0999 1.12561C74.1003 1.12537 74.1006 1.12515 74.1011 1.12491ZM78.2998 1.20026C77.0359 1.20026 75.7944 1.53299 74.7 2.16504L74.6975 2.16638L47.3999 17.7682C47.3994 17.7684 47.3989 17.7687 47.3987 17.7689C46.3057 18.4003 45.3979 19.308 44.7664 20.4009C44.1345 21.4942 43.8013 22.7344 43.7998 23.9972L43.7998 55.2029C43.8013 56.4656 44.1345 57.7058 44.7664 58.7991C45.3979 59.892 46.3057 60.7996 47.3984 61.431C47.3989 61.4313 47.3994 61.4315 47.3999 61.4318L74.7 77.0349C75.7944 77.667 77.0359 77.9998 78.2998 77.9998C79.5637 77.9998 80.8054 77.667 81.8999 77.0349L81.9021 77.0336L109.2 61.4318C109.2 61.4315 109.201 61.4313 109.201 61.431C110.294 60.7996 111.202 59.892 111.833 58.7991C112.465 57.7057 112.799 56.4654 112.8 55.2025L112.8 23.9975C112.799 22.7346 112.465 21.4943 111.833 20.4009C111.202 19.308 110.294 18.4003 109.201 17.7689C109.201 17.7687 109.2 17.7684 109.2 17.7682L81.9021 2.16638L81.8999 2.16504C80.8054 1.53299 79.5637 1.20026 78.2998 1.20026Z" fill="#000000" fill-opacity="1.000000" fill-rule="evenodd"/>
		<path d="M43.8794 20.0924C44.0432 19.8123 44.4055 19.7166 44.6887 19.8786L77.9998 38.9373L111.311 19.8786C111.594 19.7166 111.956 19.8123 112.12 20.0924C112.284 20.3724 112.187 20.7307 111.904 20.8927L78.2964 40.1211C78.1128 40.226 77.8867 40.226 77.7034 40.1211L44.0957 20.8927C43.8125 20.7307 43.7158 20.3724 43.8794 20.0924Z" fill="#000000" fill-opacity="1.000000" fill-rule="evenodd"/>
		<path d="M78 39C78.3313 39 78.5999 39.2626 78.5999 39.5865L78.5999 78.0135C78.5999 78.3374 78.3313 78.6 78 78.6C77.6685 78.6 77.3999 78.3374 77.3999 78.0135L77.3999 39.5865C77.3999 39.2626 77.6685 39 78 39Z" fill="#000000" fill-opacity="1.000000" fill-rule="evenodd"/>
	</g>
</svg>
