<svg width="131.000000" height="42.000000" viewBox="0 0 131 42" fill="none" xmlns="http://www.w3.org/2000/svg" xmlns:xlink="http://www.w3.org/1999/xlink">
	<desc>
			Created with Pixso.
	</desc>
	<defs>
		<clipPath id="clip406480_4081">
			<rect width="131.000000" height="42.000000" fill="white" fill-opacity="0"/>
		</clipPath>
	</defs>
	<rect width="131.000000" height="42.000000" fill="#FFFFFF" fill-opacity="0"/>
	<g clip-path="url(#clip406480_4081)">
		<path d="M40.7058 21.2432C40.0615 21.6133 39.28 21.9055 38.3611 22.1204C37.4424 22.335 36.4878 22.4424 35.4973 22.4424C34.1609 22.4424 33.0212 22.2815 32.0786 21.9592Q30.6826 21.4758 29.9666 20.6167Q29.6465 20.2227 29.4731 19.772Q29.2686 19.2402 29.2686 18.6301Q29.2686 17.9717 29.5088 17.4172Q29.6277 17.1428 29.8054 16.8938Q29.8706 16.8027 29.9419 16.7163L29.9419 16.7163Q30.4575 16.092 31.291 15.7305C30.802 15.4797 30.426 15.1338 30.1636 14.6924Q30.0293 14.4495 29.9429 14.1904Q29.7876 13.7244 29.7876 13.2068Q29.7876 12.7754 29.8989 12.375Q30.0554 11.8115 30.4319 11.3093Q31.0942 10.4502 32.4368 9.93115Q33.7791 9.41211 35.748 9.41211Q36.7332 9.41211 37.6956 9.56006Q37.9397 9.59766 38.1821 9.64478Q39.3813 9.87744 40.2942 10.2712L39.3276 12.9202Q38.239 12.4402 37.1042 12.2742L37.1042 12.2742Q36.5042 12.1865 35.8911 12.1865Q34.6204 12.1865 33.9939 12.5266Q33.5813 12.7388 33.4404 13.0674Q33.3674 13.2378 33.3674 13.4395Q33.3674 13.7854 33.5291 14.02Q33.8694 14.5132 34.9246 14.5132L38.4685 14.5132L38.4685 17.2161L34.6919 17.2161Q33.7791 17.2161 33.3137 17.5203Q33.104 17.6494 32.9888 17.8367Q32.8484 18.0647 32.8484 18.3794C32.8484 18.7852 33.075 19.1013 33.5286 19.3281C33.9819 19.5547 34.686 19.6682 35.6406 19.6682C36.3208 19.6682 37.0188 19.5786 37.7346 19.3997C38.4626 19.2087 39.095 18.9521 39.6321 18.6301L40.7058 21.2432ZM99.9128 12.4907L99.9128 20.4199C99.9128 22.2217 99.4238 23.5701 98.4453 24.4651C97.4668 25.3718 96.0588 25.8254 94.2212 25.8254C93.2666 25.8254 92.3716 25.718 91.5364 25.5032C90.7009 25.2883 89.991 24.9722 89.4062 24.5544L90.6414 22.1741C91.0352 22.4961 91.5303 22.7468 92.127 22.9258Q93.0398 23.2122 93.9167 23.2122C94.8118 23.2122 95.468 23.0151 95.8857 22.6216C96.3035 22.2278 96.5122 21.6431 96.5122 20.8674L96.5122 20.5452C95.856 21.3088 94.8953 21.6907 93.6304 21.6907C92.7712 21.6907 91.9778 21.4998 91.25 21.1179C90.522 20.7241 89.9434 20.1753 89.5137 19.4712C89.0842 18.7554 88.8694 17.9319 88.8694 17.0012C88.8694 16.0825 89.0842 15.271 89.5137 14.5669C89.9434 13.8511 90.522 13.3022 91.25 12.9202C91.9778 12.5266 92.7712 12.3296 93.6304 12.3296Q95.2075 12.3296 96.1443 13.104L96.1445 13.1042Q96.4409 13.3494 96.6733 13.6721L96.6733 12.4907L99.9128 12.4907ZM49.8284 17.1086Q50.6736 17.3904 51.0896 17.9766Q51.4929 18.5449 51.4929 19.3997C51.4929 20.2708 51.1528 20.9568 50.4727 21.458C49.7925 21.9473 48.7903 22.1919 47.4656 22.1919L42.0066 22.1919L42.0066 12.4907L47.2151 12.4907C48.48 12.4907 49.4585 12.7114 50.1504 13.1531Q50.7219 13.5115 50.9841 14.0271Q51.2065 14.4644 51.2065 15.0144C51.2065 15.4797 51.0872 15.8916 50.8486 16.2495C50.6099 16.6074 50.2698 16.8938 49.8284 17.1086ZM57.7571 18.7373L56.6116 18.7373L56.6116 22.1919L53.2107 22.1919L53.2107 12.4907L56.6116 12.4907L56.6116 16.0706L57.8286 16.0706L60.2092 12.4907L63.8069 12.4907L60.5493 17.1445L64.0217 22.1919L60.0125 22.1919L57.7571 18.7373ZM75.0293 12.4907L75.0293 22.1919L71.6287 22.1919L71.6287 15.1934L69.1765 15.1934L69.1047 16.679C69.0571 17.9438 68.9319 18.988 68.729 19.8113C68.5261 20.6348 68.1919 21.2791 67.7266 21.7444C67.2612 22.1978 66.6228 22.4246 65.8115 22.4246C65.3938 22.4246 64.845 22.3469 64.1648 22.1919L64.3079 19.4175C64.5227 19.4414 64.666 19.4534 64.7375 19.4534C65.1074 19.4534 65.3879 19.334 65.5789 19.0955C65.7698 18.8567 65.9009 18.5405 65.9727 18.1467Q66.0798 17.5381 66.1157 16.5359L66.259 12.4907L75.0293 12.4907ZM87.3025 12.4907L87.3025 22.1919L84.0627 22.1919L84.0627 21.1716C83.7046 21.5535 83.2751 21.8459 82.7739 22.0486C82.2847 22.2515 81.7598 22.353 81.199 22.353C79.9341 22.353 78.9258 21.9832 78.1741 21.2432C77.4341 20.5034 77.0642 19.3938 77.0642 17.9141L77.0642 12.4907L80.4651 12.4907L80.4651 17.3591C80.4651 18.7554 81.0081 19.4534 82.0938 19.4534C82.6309 19.4534 83.0664 19.2683 83.4004 18.8984C83.7346 18.5166 83.9016 17.938 83.9016 17.1624L83.9016 12.4907L87.3025 12.4907ZM45.0493 16.3926L46.9109 16.3926C47.6982 16.3926 48.092 16.1003 48.092 15.5156Q48.092 15.2327 47.9585 15.0447Q47.6946 14.6743 46.9109 14.6743L45.0493 14.6743L45.0493 16.3926ZM94.4358 18.988C95.0444 18.988 95.5457 18.803 95.9395 18.4331C96.3452 18.0632 96.5479 17.5859 96.5479 17.0012C96.5479 16.4165 96.3511 15.9453 95.9573 15.5872C95.5635 15.2173 95.0564 15.0325 94.4358 15.0325C93.8154 15.0325 93.3022 15.2173 92.8965 15.5872C92.5029 15.9453 92.3059 16.4165 92.3059 17.0012C92.3059 17.5859 92.5088 18.0632 92.9146 18.4331C93.3203 18.803 93.8274 18.988 94.4358 18.988ZM47.1614 19.9902Q47.9712 19.9902 48.25 19.6055Q48.3965 19.4036 48.3965 19.0955Q48.3965 18.7751 48.2429 18.5696Q47.9675 18.2004 47.1973 18.2004L45.0493 18.2004L45.0493 19.9902L47.1614 19.9902ZM34.7861 26.9326L34.7861 32.7739L33.1506 32.7739L33.1506 28.2427L30.9309 28.2427L30.9309 32.7739L29.3037 32.7739L29.3037 26.9326L34.7861 26.9326ZM38.363 28.176Q39.1057 28.176 39.6565 28.4597C40.0237 28.6489 40.3047 28.9214 40.4993 29.2776C40.6997 29.6279 40.7998 30.0398 40.7998 30.5125C40.7998 30.98 40.708 31.3916 40.5244 31.7476C40.3408 32.0981 40.082 32.3706 39.7483 32.5654Q39.7456 32.5669 39.7427 32.5686Q39.7402 32.5698 39.7378 32.5713Q39.2407 32.8491 38.5884 32.8491C38.071 32.8491 37.665 32.6904 37.3701 32.3735L37.3701 34.3928L35.7847 34.3928L35.7847 30.5293C35.7847 30.062 35.8904 29.6504 36.1018 29.2942C36.313 28.9382 36.6135 28.6628 37.0029 28.468C37.3923 28.2734 37.8457 28.176 38.363 28.176ZM43.7942 32.8491C43.3101 32.8491 42.8735 32.749 42.4839 32.5486C42.0945 32.3484 41.7886 32.0703 41.5662 31.7141C41.3491 31.3582 41.2407 30.9548 41.2407 30.5042C41.2407 30.0591 41.3491 29.6587 41.5662 29.3025C41.7886 28.9465 42.0918 28.6711 42.4756 28.4766C42.865 28.2761 43.3044 28.176 43.7942 28.176C44.2837 28.176 44.7231 28.2761 45.1125 28.4766C45.502 28.6711 45.8052 28.9465 46.0222 29.3025C46.239 29.6531 46.3477 30.0537 46.3477 30.5042C46.3477 30.9548 46.239 31.3582 46.0222 31.7141C45.8052 32.0703 45.502 32.3484 45.1125 32.5486C44.7231 32.749 44.2837 32.8491 43.7942 32.8491ZM49.4861 31.6392C49.7031 31.6392 49.8894 31.6084 50.0452 31.5474C50.2065 31.4861 50.3679 31.386 50.5293 31.2468L51.3555 32.1147C50.927 32.6042 50.2874 32.8491 49.436 32.8491C48.9075 32.8491 48.4431 32.749 48.0425 32.5486C47.6418 32.3484 47.3303 32.0703 47.1079 31.7141C46.8909 31.3582 46.7825 30.9548 46.7825 30.5042C46.7825 30.0591 46.8909 29.6614 47.1079 29.311C47.325 28.9548 47.6226 28.6768 48.0007 28.4766C48.3845 28.2761 48.813 28.176 49.2859 28.176C49.7253 28.176 50.126 28.2678 50.4875 28.4514C50.8547 28.6294 51.1467 28.8938 51.3638 29.2441C51.5806 29.5891 51.6892 30.0007 51.6892 30.4792L48.4597 31.0967C48.6321 31.4583 48.9744 31.6392 49.4861 31.6392ZM63.9023 28.176C64.4587 28.176 64.9011 28.343 65.2292 28.6768C65.563 29.0105 65.73 29.5139 65.73 30.187L65.73 32.7739L64.1445 32.7739L64.1445 30.4458C64.1445 30.1287 64.0833 29.895 63.9609 29.7449C63.844 29.5947 63.6772 29.5195 63.4602 29.5195C63.2209 29.5195 63.0291 29.603 62.8843 29.7698C62.7397 29.9368 62.6675 30.1899 62.6675 30.5293L62.6675 32.7739L61.082 32.7739L61.082 30.4458C61.082 29.8284 60.8538 29.5195 60.3977 29.5195C60.1528 29.5195 59.9583 29.603 59.8135 29.7698C59.6689 29.9368 59.5967 30.1899 59.5967 30.5293L59.5967 32.7739L58.011 32.7739L58.011 28.2512L59.5215 28.2512L59.5215 28.7268C59.6885 28.5432 59.8857 28.407 60.114 28.3179C60.3477 28.2234 60.6008 28.176 60.8733 28.176C61.1904 28.176 61.4741 28.2344 61.7244 28.3513C61.9749 28.468 62.178 28.6462 62.3337 28.8853C62.5117 28.6572 62.7371 28.4819 63.0095 28.3596C63.2822 28.2373 63.5798 28.176 63.9023 28.176ZM82.3923 31.6392C82.6094 31.6392 82.7957 31.6084 82.9514 31.5474C83.1128 31.4861 83.2742 31.386 83.4355 31.2468L84.2617 32.1147C83.8333 32.6042 83.1936 32.8491 82.3423 32.8491C81.814 32.8491 81.3494 32.749 80.9487 32.5486C80.5483 32.3484 80.2368 32.0703 80.0142 31.7141C79.7971 31.3582 79.6887 30.9548 79.6887 30.5042C79.6887 30.0591 79.7971 29.6614 80.0142 29.311C80.2312 28.9548 80.5288 28.6768 80.907 28.4766C81.291 28.2761 81.7192 28.176 82.1921 28.176C82.6316 28.176 83.0322 28.2678 83.3938 28.4514C83.761 28.6294 84.053 28.8938 84.27 29.2441C84.4871 29.5891 84.5955 30.0007 84.5955 30.4792L81.366 31.0967C81.5386 31.4583 81.8806 31.6392 82.3923 31.6392ZM90.0498 32.8491C89.5491 32.8491 89.1011 32.749 88.7063 32.5486C88.3113 32.3484 88.0024 32.0703 87.78 31.7141C87.563 31.3582 87.4546 30.9548 87.4546 30.5042C87.4546 30.0537 87.563 29.6531 87.78 29.3025C88.0024 28.9465 88.3113 28.6711 88.7063 28.4766C89.1011 28.2761 89.5491 28.176 90.0498 28.176C90.5615 28.176 91.0039 28.2874 91.3765 28.5098C91.7493 28.7268 92.0134 29.03 92.1692 29.4194L90.9426 30.0452C90.7368 29.6392 90.4363 29.436 90.0413 29.436C89.7576 29.436 89.5212 29.5308 89.332 29.7197C89.1484 29.9089 89.0566 30.1704 89.0566 30.5042C89.0566 30.8435 89.1484 31.1106 89.332 31.3054C89.5212 31.4944 89.7576 31.5891 90.0413 31.5891C90.4363 31.5891 90.7368 31.386 90.9426 30.98L92.1692 31.6057C92.0134 31.9951 91.7493 32.301 91.3765 32.5237C91.0039 32.7407 90.5615 32.8491 90.0498 32.8491ZM100.823 32.8491C100.322 32.8491 99.8743 32.749 99.4795 32.5486C99.0845 32.3484 98.7756 32.0703 98.5532 31.7141C98.3362 31.3582 98.2278 30.9548 98.2278 30.5042C98.2278 30.0537 98.3362 29.6531 98.5532 29.3025C98.7756 28.9465 99.0845 28.6711 99.4795 28.4766C99.8743 28.2761 100.322 28.176 100.823 28.176C101.335 28.176 101.777 28.2874 102.15 28.5098C102.522 28.7268 102.787 29.03 102.942 29.4194L101.716 30.0452C101.51 29.6392 101.209 29.436 100.814 29.436C100.531 29.436 100.294 29.5308 100.105 29.7197C99.9216 29.9089 99.8298 30.1704 99.8298 30.5042C99.8298 30.8435 99.9216 31.1106 100.105 31.3054C100.294 31.4944 100.531 31.5891 100.814 31.5891C101.209 31.5891 101.51 31.386 101.716 30.98L102.942 31.6057C102.787 31.9951 102.522 32.301 102.15 32.5237C101.777 32.7407 101.335 32.8491 100.823 32.8491ZM109.497 28.176C110.053 28.176 110.496 28.343 110.824 28.6768C111.157 29.0105 111.324 29.5139 111.324 30.187L111.324 32.7739L109.739 32.7739L109.739 30.4458C109.739 30.1287 109.678 29.895 109.555 29.7449C109.438 29.5947 109.272 29.5195 109.055 29.5195C108.815 29.5195 108.624 29.603 108.479 29.7698C108.334 29.9368 108.262 30.1899 108.262 30.5293L108.262 32.7739L106.677 32.7739L106.677 30.4458C106.677 29.8284 106.448 29.5195 105.992 29.5195C105.747 29.5195 105.553 29.603 105.408 29.7698C105.263 29.9368 105.191 30.1899 105.191 30.5293L105.191 32.7739L103.606 32.7739L103.606 28.2512L105.116 28.2512L105.116 28.7268C105.283 28.5432 105.48 28.407 105.708 28.3179C105.942 28.2234 106.195 28.176 106.468 28.176C106.785 28.176 107.069 28.2344 107.319 28.3513C107.569 28.468 107.772 28.6462 107.928 28.8853C108.106 28.6572 108.332 28.4819 108.604 28.3596C108.877 28.2373 109.174 28.176 109.497 28.176ZM114.679 31.6392C114.896 31.6392 115.083 31.6084 115.239 31.5474C115.4 31.4861 115.561 31.386 115.722 31.2468L116.549 32.1147C116.12 32.6042 115.48 32.8491 114.629 32.8491C114.101 32.8491 113.636 32.749 113.236 32.5486C112.835 32.3484 112.524 32.0703 112.301 31.7141C112.084 31.3582 111.976 30.9548 111.976 30.5042C111.976 30.0591 112.084 29.6614 112.301 29.311C112.518 28.9548 112.816 28.6768 113.194 28.4766C113.578 28.2761 114.006 28.176 114.479 28.176C114.919 28.176 115.319 28.2678 115.681 28.4514C116.048 28.6294 116.34 28.8938 116.557 29.2441C116.774 29.5891 116.882 30.0007 116.882 30.4792L113.653 31.0967C113.825 31.4583 114.167 31.6392 114.679 31.6392ZM54.5647 31.1633L54.0308 31.1633L54.0308 32.7739L52.4453 32.7739L52.4453 28.2512L54.0308 28.2512L54.0308 29.9202L54.5981 29.9202L55.708 28.2512L57.3853 28.2512L55.8665 30.4207L57.4854 32.7739L55.6162 32.7739L54.5647 31.1633ZM66.6899 28.2512L68.2671 28.2512L68.2671 29.9285L69.8943 29.9285L69.8943 28.2512L71.4797 28.2512L71.4797 32.7739L69.8943 32.7739L69.8943 31.1885L68.2671 31.1885L68.2671 32.7739L66.6899 32.7739L66.6899 28.2512ZM74.7021 32.9075C73.2056 32.9075 72.4573 32.2649 72.4573 30.98L72.4573 28.2512L74.0344 28.2512L74.0344 29.6865C74.1514 29.6086 74.3071 29.5447 74.502 29.4944C74.7021 29.4443 74.9302 29.4194 75.186 29.4194C75.7424 29.4194 76.1792 29.5613 76.4963 29.845C76.8132 30.123 76.9719 30.5376 76.9719 31.0884C76.9719 31.6836 76.7661 32.137 76.3545 32.4485C75.9482 32.7544 75.3975 32.9075 74.7021 32.9075ZM77.3474 28.2512L78.9329 28.2512L78.9329 32.7739L77.3474 32.7739L77.3474 28.2512ZM97.4888 28.2512L97.4888 32.7739L95.9783 32.7739L95.9783 32.2983C95.8115 32.4763 95.6113 32.6125 95.3774 32.7073C95.1494 32.8018 94.9048 32.8491 94.6433 32.8491C94.0535 32.8491 93.5835 32.6765 93.2329 32.3318C92.8879 31.9868 92.7156 31.4695 92.7156 30.7795L92.7156 28.2512L94.301 28.2512L94.301 30.521C94.301 31.1719 94.5542 31.4973 95.0605 31.4973C95.3108 31.4973 95.5139 31.4111 95.6697 31.2385C95.8254 31.0605 95.9033 30.7908 95.9033 30.4292L95.9033 28.2512L97.4888 28.2512ZM122.028 32.7739L122.028 30.3958L120.868 32.3735L120.192 32.3735L119.065 30.3623L119.065 32.7739L117.638 32.7739L117.638 28.2512L119.307 28.2512L120.567 30.6128L121.953 28.2512L123.446 28.2512L123.455 32.7739L122.028 32.7739ZM126.677 32.9075C125.181 32.9075 124.433 32.2649 124.433 30.98L124.433 28.2512L126.01 28.2512L126.01 29.6865C126.127 29.6086 126.282 29.5447 126.477 29.4944C126.677 29.4443 126.906 29.4194 127.161 29.4194C127.718 29.4194 128.155 29.5613 128.471 29.845C128.789 30.123 128.947 30.5376 128.947 31.0884C128.947 31.6836 128.741 32.137 128.33 32.4485C127.924 32.7544 127.373 32.9075 126.677 32.9075ZM129.323 28.2512L130.908 28.2512L130.908 32.7739L129.323 32.7739L129.323 28.2512ZM49.2942 29.3025C49.0217 29.3025 48.7991 29.3889 48.6267 29.5613C48.4541 29.7283 48.3569 29.9702 48.3345 30.2874L50.1704 29.9285C50.1147 29.7393 50.009 29.5891 49.8533 29.4778C49.6975 29.3611 49.5112 29.3025 49.2942 29.3025ZM82.2004 29.3025C81.928 29.3025 81.7053 29.3889 81.533 29.5613Q81.5281 29.5659 81.5234 29.5706Q81.2737 29.8203 81.241 30.2874L83.0767 29.9285C83.021 29.7393 82.9153 29.5891 82.7595 29.4778Q82.7043 29.4363 82.6438 29.4048Q82.449 29.3025 82.2004 29.3025ZM114.488 29.3025C114.215 29.3025 113.992 29.3889 113.82 29.5613C113.647 29.7283 113.55 29.9702 113.528 30.2874L115.364 29.9285C115.308 29.7393 115.202 29.5891 115.047 29.4778C114.891 29.3611 114.704 29.3025 114.488 29.3025ZM38.2881 31.5891C38.5718 31.5891 38.7998 31.4917 38.9724 31.2969C39.1504 31.0967 39.2393 30.8352 39.2393 30.5125C39.2393 30.1899 39.1504 29.9312 38.9724 29.7366Q38.8691 29.6167 38.7395 29.5447Q38.5439 29.436 38.2881 29.436C38.0044 29.436 37.7761 29.5361 37.6038 29.7366C37.4314 29.9312 37.345 30.1899 37.345 30.5125C37.345 30.8408 37.4285 31.1023 37.5955 31.2969C37.7678 31.4917 37.9988 31.5891 38.2881 31.5891ZM43.7942 31.5891C44.0723 31.5891 44.3003 31.4944 44.4783 31.3054C44.6565 31.1106 44.7454 30.8435 44.7454 30.5042C44.7454 30.1704 44.6565 29.9089 44.4783 29.7197C44.3003 29.5308 44.0723 29.436 43.7942 29.436C43.5159 29.436 43.2878 29.5308 43.1099 29.7197C42.9319 29.9089 42.8428 30.1704 42.8428 30.5042C42.8428 30.8435 42.9319 31.1106 43.1099 31.3054C43.2878 31.4944 43.5159 31.5891 43.7942 31.5891ZM74.7021 31.8228C74.9192 31.8228 75.0833 31.7588 75.1943 31.6309C75.3057 31.5027 75.3613 31.333 75.3613 31.1218C75.3613 30.9158 75.3057 30.7546 75.1943 30.6377C75.0833 30.521 74.9219 30.4624 74.7104 30.4624C74.5603 30.4624 74.4268 30.4902 74.3098 30.5459C74.1931 30.6016 74.1013 30.6768 74.0344 30.7712L74.0344 31.1218C74.0344 31.3386 74.0901 31.5112 74.2014 31.6392C74.3127 31.7615 74.4795 31.8228 74.7021 31.8228ZM126.677 31.8228C126.894 31.8228 127.059 31.7588 127.17 31.6309C127.281 31.5027 127.337 31.333 127.337 31.1218C127.337 30.9158 127.281 30.7546 127.17 30.6377C127.059 30.521 126.897 30.4624 126.686 30.4624C126.536 30.4624 126.402 30.4902 126.285 30.5459C126.168 30.6016 126.077 30.6768 126.01 30.7712L126.01 31.1218C126.01 31.3386 126.065 31.5112 126.177 31.6392C126.288 31.7615 126.455 31.8228 126.677 31.8228Z" fill="#FFFFFF" fill-opacity="1.000000" fill-rule="evenodd"/>
		<rect width="22.313097" height="42.146957" transform="translate(-0.164307 0.000000)" fill="#FFFFFF" fill-opacity="0"/>
		<path d="M9.57129 14.21L4.88477 25.0037L0.591553 25.0037L0.591553 25.9409L4.40112 25.9409C4.40112 25.9409 1.13574 33.1973 0.591553 34.5579C0.0473633 35.9185 1.67993 36.5532 1.67993 36.5532L-0.164307 42.1467L0.10791 42.1467L7.36401 25.9409L10.2969 25.9409L10.2969 27.1504C10.2625 27.262 10.3394 27.4685 10.8411 27.5273L10.8411 27.5435C10.8945 27.5435 10.9448 27.5422 10.9922 27.5398C11.0396 27.5422 11.0898 27.5435 11.1433 27.5435L11.1433 27.5273C11.6453 27.4685 11.7219 27.262 11.6877 27.1504L11.6877 25.9409L14.6204 25.9409L21.8767 42.1467L22.1487 42.1467L20.3044 36.5532C20.3044 36.5532 21.9373 35.9185 21.3928 34.5579C20.8486 33.1973 17.5833 25.9409 17.5833 25.9409L21.3928 25.9409L21.3928 25.0037L17.0996 25.0037L12.4133 14.21L9.57129 14.21ZM10.9922 17.6155L7.81763 25.0037L10.2969 25.0037L10.2969 23.6128C10.2969 23.3276 10.6973 23.2656 10.9922 23.271C11.2871 23.2656 11.6877 23.3276 11.6877 23.6128L11.6877 25.0037L14.1667 25.0037L10.9922 17.6155Z" fill="#FF9900" fill-opacity="1.000000" fill-rule="evenodd"/>
		<path d="M11.9297 0L10.1157 0L10.1157 4.55737C7.8103 4.98364 6.06421 7.00439 6.06421 9.43311C6.06421 12.1716 8.28418 14.3916 11.0227 14.3916C13.7612 14.3916 15.9812 12.1716 15.9812 9.43311C15.9812 7.00439 14.2351 4.98364 11.9297 4.55737L11.9297 0ZM14.2275 9.43311C14.2275 11.2031 12.7927 12.6379 11.0227 12.6379C9.25269 12.6379 7.81787 11.2031 7.81787 9.43311C7.81787 7.66309 9.25269 6.22827 11.0227 6.22827C12.7927 6.22827 14.2275 7.66309 14.2275 9.43311Z" fill="#FFFFFF" fill-opacity="1.000000" fill-rule="evenodd"/>
	</g>
</svg>
