<svg width="150.000000" height="48.000000" viewBox="0 0 150 48" fill="none" xmlns="http://www.w3.org/2000/svg" xmlns:xlink="http://www.w3.org/1999/xlink">
	<desc>
			Created with Pixso.
	</desc>
	<defs>
		<clipPath id="clip406480_4500">
			<rect width="150.000000" height="48.000000" fill="white" fill-opacity="0"/>
		</clipPath>
	</defs>
	<rect width="150.000000" height="48.000000" fill="#FFFFFF" fill-opacity="0"/>
	<g clip-path="url(#clip406480_4500)">
		<path d="M46.6704 24.3562C45.9316 24.7803 45.0352 25.1155 43.9819 25.3616C42.9287 25.6079 41.834 25.731 40.6987 25.731C39.1665 25.731 37.8599 25.5464 36.7788 25.177Q35.1782 24.6228 34.3574 23.6379Q33.9902 23.186 33.7915 22.6692L33.7915 22.6692Q33.5571 22.0598 33.5571 21.3599Q33.5571 20.605 33.8325 19.9695Q33.9688 19.6548 34.1729 19.3694C34.583 18.7949 35.1509 18.3501 35.876 18.0356Q35.272 17.7261 34.8687 17.2473L34.8687 17.2473Q34.7104 17.0593 34.583 16.8452Q34.4292 16.5669 34.3306 16.27Q34.1523 15.7356 34.1523 15.1421Q34.1523 14.6475 34.2798 14.1885Q34.459 13.5425 34.8911 12.9668Q35.6504 11.9817 37.1895 11.3867Q38.7285 10.7915 40.9858 10.7915Q42.1152 10.7915 43.2188 10.9612Q43.4985 11.0044 43.7769 11.0583Q45.1519 11.325 46.1982 11.7766L45.0903 14.8137Q43.8418 14.2634 42.541 14.073L42.541 14.073Q41.853 13.9724 41.1499 13.9724Q39.6929 13.9724 38.9746 14.3623Q38.5015 14.6055 38.3403 14.9824Q38.2563 15.1777 38.2563 15.4087Q38.2563 15.8057 38.4419 16.0747Q38.832 16.6401 40.042 16.6401L44.105 16.6401L44.105 19.7388L39.7749 19.7388C39.0771 19.7388 38.5508 19.855 38.1948 20.0876Q37.9546 20.2356 37.8223 20.4502Q37.6616 20.7119 37.6616 21.0728C37.6616 21.5378 37.9214 21.9004 38.4414 22.1604C38.9609 22.4202 39.7681 22.5503 40.8628 22.5503Q42.0322 22.5503 43.2637 22.2424C44.0981 22.0234 44.8232 21.7292 45.439 21.3599L46.6704 24.3562ZM114.552 14.3213L114.552 23.4121C114.552 25.478 113.991 27.0239 112.869 28.05C111.748 29.0896 110.133 29.6096 108.026 29.6096C106.932 29.6096 105.906 29.4863 104.948 29.2402C103.99 28.9939 103.176 28.6313 102.506 28.1526L103.922 25.4231C104.374 25.7925 104.941 26.0798 105.625 26.2852C106.323 26.5039 107.007 26.6135 107.677 26.6135C108.704 26.6135 109.456 26.3877 109.935 25.9363C110.414 25.4849 110.653 24.8145 110.653 23.925L110.653 23.5557Q110.436 23.8088 110.179 24.0134Q109.105 24.8691 107.349 24.8691C106.364 24.8691 105.454 24.6501 104.62 24.2124C103.785 23.761 103.122 23.1316 102.629 22.3245C102.137 21.5037 101.891 20.5596 101.891 19.4924C101.891 18.4392 102.137 17.5088 102.629 16.7017C103.122 15.8809 103.785 15.2515 104.62 14.8137C105.454 14.3623 106.364 14.1365 107.349 14.1365C108.936 14.1365 110.099 14.6494 110.838 15.6755L110.838 14.3213L114.552 14.3213ZM57.1294 19.6157C58.4014 20.0398 59.0376 20.9153 59.0376 22.2424Q59.0376 23.0476 58.6997 23.6692Q58.4092 24.2039 57.8682 24.6023C57.0884 25.1633 55.939 25.4436 54.4204 25.4436L48.1616 25.4436L48.1616 14.3213L54.1333 14.3213Q56.3086 14.3213 57.4985 15.0806C58.3057 15.5867 58.7095 16.2981 58.7095 17.2146Q58.7095 17.7986 58.4907 18.2844Q58.4097 18.4644 58.2988 18.6306C58.0254 19.041 57.6353 19.3694 57.1294 19.6157ZM66.2197 21.4832L64.9062 21.4832L64.9062 25.4436L61.0073 25.4436L61.0073 14.3213L64.9062 14.3213L64.9062 18.4255L66.3018 18.4255L69.0312 14.3213L73.1558 14.3213L69.4209 19.6567L73.4023 25.4436L68.8052 25.4436L66.2197 21.4832ZM86.0225 14.3213L86.0225 25.4436L82.1235 25.4436L82.1235 17.4199L79.312 17.4199L79.23 19.123C79.1753 20.5732 79.0317 21.7705 78.7993 22.7144C78.5664 23.6584 78.1836 24.3972 77.6499 24.9307C77.1162 25.4507 76.3843 25.7104 75.4541 25.7104C74.9751 25.7104 74.3462 25.6216 73.5659 25.4436L73.7305 22.2629C73.9766 22.2903 74.1406 22.304 74.2227 22.304C74.647 22.304 74.9683 22.1672 75.1875 21.8936C75.4062 21.6199 75.5566 21.2573 75.6387 20.8059C75.7207 20.3408 75.7754 19.7251 75.8027 18.959L75.9673 14.3213L86.0225 14.3213ZM100.094 14.3213L100.094 25.4436L96.3794 25.4436L96.3794 24.2739C95.9692 24.7119 95.4766 25.0469 94.9019 25.2795Q94.792 25.3252 94.6797 25.365L94.6772 25.3657Q93.9331 25.6284 93.0962 25.6284C91.646 25.6284 90.4897 25.2043 89.6279 24.3562Q88.3555 23.0837 88.3555 20.5391L88.3555 14.3213L92.2549 14.3213L92.2549 19.9031C92.2549 21.5037 92.877 22.304 94.1221 22.304C94.7378 22.304 95.2373 22.0918 95.6201 21.6677C96.0034 21.23 96.1948 20.5664 96.1948 19.6772L96.1948 14.3213L100.094 14.3213ZM51.6499 18.7949L53.7842 18.7949C54.687 18.7949 55.1387 18.4597 55.1387 17.7893C55.1387 17.1462 54.687 16.8247 53.7842 16.8247L51.6499 16.8247L51.6499 18.7949ZM108.272 21.7705C108.97 21.7705 109.545 21.5583 109.996 21.1343Q110.278 20.8772 110.446 20.5598Q110.694 20.0918 110.694 19.4924C110.694 18.8223 110.468 18.2817 110.017 17.8713C109.565 17.4473 108.984 17.2351 108.272 17.2351C107.561 17.2351 106.973 17.4473 106.508 17.8713C106.056 18.2817 105.831 18.8223 105.831 19.4924C105.831 20.1628 106.063 20.7102 106.528 21.1343C106.993 21.5583 107.575 21.7705 108.272 21.7705ZM54.0718 22.9197C55.0156 22.9197 55.4873 22.5776 55.4873 21.8936Q55.4873 21.5266 55.3115 21.2908Q54.9956 20.8674 54.1128 20.8674L51.6499 20.8674L51.6499 22.9197L54.0718 22.9197ZM39.8833 30.8792L39.8833 37.5762L38.0078 37.5762L38.0078 32.3811L35.4629 32.3811L35.4629 37.5762L33.5977 37.5762L33.5977 30.8792L39.8833 30.8792ZM43.9844 32.3047C44.5518 32.3047 45.0464 32.4131 45.4673 32.6299C45.8882 32.8467 46.2104 33.1594 46.4336 33.5676Q46.7778 34.1702 46.7778 34.9834C46.7778 35.5193 46.6729 35.9912 46.4619 36.3994C46.2515 36.8013 45.9551 37.1138 45.5723 37.3372Q45.5664 37.3406 45.5601 37.344Q44.9902 37.6624 44.2427 37.6624Q43.5601 37.6624 43.1025 37.3413Q42.9639 37.2439 42.8457 37.1169L42.8457 39.4324L41.0278 39.4324L41.0278 35.0027Q41.0278 34.2705 41.3296 33.697L41.3301 33.6965Q41.3594 33.6409 41.3916 33.5867C41.6338 33.1785 41.978 32.8628 42.4248 32.6394Q43.0942 32.3047 43.9844 32.3047ZM50.2109 37.6624C49.6562 37.6624 49.1553 37.5476 48.709 37.3179C48.2622 37.0884 47.9116 36.7695 47.6562 36.3611C47.4077 35.9529 47.2832 35.4905 47.2832 34.9739Q47.2832 34.4226 47.4771 33.9507Q47.5522 33.7676 47.6562 33.5962C47.9116 33.188 48.2593 32.8723 48.6992 32.6492C49.1455 32.4194 49.6494 32.3047 50.2109 32.3047C50.772 32.3047 51.2759 32.4194 51.7227 32.6492C52.1689 32.8723 52.5166 33.188 52.7656 33.5962C53.0142 33.998 53.1387 34.4573 53.1387 34.9739C53.1387 35.4905 53.0142 35.9529 52.7656 36.3611C52.5166 36.7695 52.1689 37.0884 51.7227 37.3179C51.2759 37.5476 50.772 37.6624 50.2109 37.6624ZM56.7368 36.2751C56.9858 36.2751 57.1992 36.24 57.3779 36.1699C57.563 36.0996 57.748 35.9849 57.9326 35.8254L58.8799 36.8203C58.3887 37.3818 57.6553 37.6624 56.6797 37.6624C56.0737 37.6624 55.541 37.5476 55.0815 37.3179C54.6226 37.0884 54.2651 36.7695 54.0103 36.3611C53.7612 35.9529 53.6372 35.4905 53.6372 34.9739C53.6372 34.4636 53.7612 34.0076 54.0103 33.6057C54.2588 33.1975 54.6001 32.8787 55.0337 32.6492C55.4741 32.4194 55.9653 32.3047 56.5073 32.3047C57.0112 32.3047 57.4702 32.4099 57.8848 32.6204C58.3062 32.8245 58.6406 33.1274 58.8896 33.5293Q58.8911 33.532 58.8931 33.5349Q58.897 33.5415 58.9014 33.5481Q59.2627 34.1355 59.2627 34.9453L55.5601 35.6533C55.7578 36.0679 56.1499 36.2751 56.7368 36.2751ZM73.2656 32.3047C73.9033 32.3047 74.4102 32.4961 74.7866 32.8787C75.1694 33.2615 75.3608 33.8386 75.3608 34.6104L75.3608 37.5762L73.543 37.5762L73.543 34.907C73.543 34.5435 73.4727 34.2756 73.3325 34.1033C73.1982 33.9312 73.0073 33.845 72.7583 33.845C72.4839 33.845 72.2642 33.9407 72.0981 34.1321C71.9326 34.3232 71.8496 34.6135 71.8496 35.0027L71.8496 37.5762L70.0317 37.5762L70.0317 34.907C70.0317 34.199 69.77 33.845 69.2471 33.845C68.9663 33.845 68.7432 33.9407 68.5776 34.1321C68.4116 34.3232 68.3286 34.6135 68.3286 35.0027L68.3286 37.5762L66.5107 37.5762L66.5107 32.3906L68.2427 32.3906L68.2427 32.936C68.4341 32.7256 68.6602 32.5693 68.9219 32.4673C69.1899 32.3589 69.48 32.3047 69.7925 32.3047C70.1562 32.3047 70.4814 32.3716 70.7686 32.5056C71.0552 32.6394 71.2881 32.8435 71.4668 33.1179C71.6709 32.8564 71.9292 32.6555 72.2417 32.5151C72.5542 32.3748 72.8955 32.3047 73.2656 32.3047ZM94.4644 36.2751C94.7134 36.2751 94.9268 36.24 95.1055 36.1699C95.2905 36.0996 95.4756 35.9849 95.6606 35.8254L96.6074 36.8203C96.1167 37.3818 95.3828 37.6624 94.4072 37.6624C93.8013 37.6624 93.2686 37.5476 92.8096 37.3179C92.3501 37.0884 91.9927 36.7695 91.7378 36.3611C91.4893 35.9529 91.3647 35.4905 91.3647 34.9739C91.3647 34.4636 91.4893 34.0076 91.7378 33.6057C91.9863 33.1975 92.3276 32.8787 92.7617 32.6492C93.2017 32.4194 93.6929 32.3047 94.2349 32.3047C94.7388 32.3047 95.1978 32.4099 95.6128 32.6204C96.0337 32.8245 96.3682 33.1274 96.6172 33.5293C96.8657 33.9248 96.9902 34.3967 96.9902 34.9453L93.2876 35.6533C93.4854 36.0679 93.8779 36.2751 94.4644 36.2751ZM103.244 37.6624C102.669 37.6624 102.156 37.5476 101.703 37.3179C101.25 37.0884 100.896 36.7695 100.641 36.3611C100.393 35.9529 100.268 35.4905 100.268 34.9739C100.268 34.4573 100.393 33.998 100.641 33.5962C100.896 33.188 101.25 32.8723 101.703 32.6492C102.156 32.4194 102.669 32.3047 103.244 32.3047C103.831 32.3047 104.337 32.4321 104.765 32.6873C105.192 32.936 105.495 33.2837 105.674 33.7302L104.268 34.4478C104.031 33.9822 103.687 33.7493 103.234 33.7493C102.909 33.7493 102.638 33.8577 102.421 34.0747C102.21 34.2915 102.105 34.5913 102.105 34.9739C102.105 35.363 102.21 35.6692 102.421 35.8923C102.638 36.1094 102.909 36.2178 103.234 36.2178C103.687 36.2178 104.031 35.9849 104.268 35.5193L105.674 36.2368C105.495 36.6833 105.192 37.0342 104.765 37.2893C104.337 37.5381 103.831 37.6624 103.244 37.6624ZM115.595 37.6624C115.021 37.6624 114.508 37.5476 114.055 37.3179C113.602 37.0884 113.248 36.7695 112.993 36.3611C112.744 35.9529 112.62 35.4905 112.62 34.9739C112.62 34.4573 112.744 33.998 112.993 33.5962C113.248 33.188 113.602 32.8723 114.055 32.6492C114.508 32.4194 115.021 32.3047 115.595 32.3047C116.182 32.3047 116.689 32.4321 117.117 32.6873C117.544 32.936 117.847 33.2837 118.025 33.7302L116.619 34.4478C116.383 33.9822 116.039 33.7493 115.586 33.7493C115.26 33.7493 114.989 33.8577 114.772 34.0747C114.562 34.2915 114.457 34.5913 114.457 34.9739C114.457 35.363 114.562 35.6692 114.772 35.8923C114.989 36.1094 115.26 36.2178 115.586 36.2178C116.039 36.2178 116.383 35.9849 116.619 35.5193L118.025 36.2368C117.847 36.6833 117.544 37.0342 117.117 37.2893C116.689 37.5381 116.182 37.6624 115.595 37.6624ZM125.54 32.3047C126.178 32.3047 126.685 32.4961 127.062 32.8787C127.444 33.2615 127.636 33.8386 127.636 34.6104L127.636 37.5762L125.818 37.5762L125.818 34.907C125.818 34.5435 125.748 34.2756 125.607 34.1033C125.473 33.9312 125.282 33.845 125.033 33.845C124.759 33.845 124.539 33.9407 124.373 34.1321C124.207 34.3232 124.125 34.6135 124.125 35.0027L124.125 37.5762L122.307 37.5762L122.307 34.907C122.307 34.199 122.045 33.845 121.522 33.845C121.241 33.845 121.018 33.9407 120.852 34.1321C120.687 34.3232 120.604 34.6135 120.604 35.0027L120.604 37.5762L118.786 37.5762L118.786 32.3906L120.518 32.3906L120.518 32.936C120.709 32.7256 120.935 32.5693 121.197 32.4673C121.464 32.3589 121.755 32.3047 122.067 32.3047C122.431 32.3047 122.756 32.3716 123.043 32.5056C123.33 32.6394 123.563 32.8435 123.742 33.1179C123.946 32.8564 124.204 32.6555 124.517 32.5151C124.829 32.3748 125.17 32.3047 125.54 32.3047ZM131.482 36.2751C131.731 36.2751 131.944 36.24 132.123 36.1699C132.308 36.0996 132.493 35.9849 132.678 35.8254L133.625 36.8203C133.134 37.3818 132.4 37.6624 131.425 37.6624C130.819 37.6624 130.286 37.5476 129.827 37.3179C129.368 37.0884 129.01 36.7695 128.755 36.3611C128.506 35.9529 128.382 35.4905 128.382 34.9739C128.382 34.4636 128.506 34.0076 128.755 33.6057C129.004 33.1975 129.345 32.8787 129.779 32.6492C130.219 32.4194 130.71 32.3047 131.252 32.3047C131.756 32.3047 132.215 32.4099 132.63 32.6204C133.051 32.8245 133.386 33.1274 133.635 33.5293C133.883 33.9248 134.008 34.3967 134.008 34.9453L130.305 35.6533C130.503 36.0679 130.895 36.2751 131.482 36.2751ZM62.5596 35.7297L61.9473 35.7297L61.9473 37.5762L60.1294 37.5762L60.1294 32.3906L61.9473 32.3906L61.9473 34.3042L62.5977 34.3042L63.8701 32.3906L65.7935 32.3906L64.0522 34.8782L65.9082 37.5762L63.7651 37.5762L62.5596 35.7297ZM76.4614 32.3906L78.2695 32.3906L78.2695 34.3137L80.1353 34.3137L80.1353 32.3906L81.9531 32.3906L81.9531 37.5762L80.1353 37.5762L80.1353 35.7585L78.2695 35.7585L78.2695 37.5762L76.4614 37.5762L76.4614 32.3906ZM85.6475 37.7292C83.9316 37.7292 83.0737 36.9927 83.0737 35.5193L83.0737 32.3906L84.8818 32.3906L84.8818 34.0364C85.0161 33.947 85.1943 33.8738 85.418 33.8162C85.6475 33.7588 85.9087 33.7302 86.2021 33.7302C86.8403 33.7302 87.3408 33.8928 87.7046 34.218C88.0679 34.5371 88.2495 35.0122 88.2495 35.6436C88.2495 36.3262 88.0137 36.8459 87.542 37.2031C87.0762 37.554 86.4448 37.7292 85.6475 37.7292ZM88.6802 32.3906L90.498 32.3906L90.498 37.5762L88.6802 37.5762L88.6802 32.3906ZM111.772 32.3906L111.772 37.5762L110.041 37.5762L110.041 37.031C109.85 37.2351 109.62 37.3914 109.352 37.4998C109.091 37.6082 108.81 37.6624 108.51 37.6624C107.834 37.6624 107.295 37.4646 106.894 37.0691C106.498 36.6738 106.3 36.0806 106.3 35.2896L106.3 32.3906L108.118 32.3906L108.118 34.9932C108.118 35.7393 108.408 36.1125 108.989 36.1125C109.275 36.1125 109.508 36.0137 109.687 35.8159C109.866 35.6118 109.955 35.3025 109.955 34.8879L109.955 32.3906L111.772 32.3906ZM139.907 37.5762L139.907 34.8496L138.577 37.1169L137.802 37.1169L136.511 34.8113L136.511 37.5762L134.875 37.5762L134.875 32.3906L136.788 32.3906L138.233 35.0984L139.821 32.3906L141.534 32.3906L141.543 37.5762L139.907 37.5762ZM145.238 37.7292C143.522 37.7292 142.664 36.9927 142.664 35.5193L142.664 32.3906L144.473 32.3906L144.473 34.0364C144.606 33.947 144.785 33.8738 145.008 33.8162C145.238 33.7588 145.5 33.7302 145.793 33.7302C146.431 33.7302 146.931 33.8928 147.295 34.218C147.659 34.5371 147.84 35.0122 147.84 35.6436C147.84 36.3262 147.604 36.8459 147.132 37.2031C146.667 37.554 146.035 37.7292 145.238 37.7292ZM148.271 32.3906L150.088 32.3906L150.088 37.5762L148.271 37.5762L148.271 32.3906ZM56.5171 33.5962C56.2041 33.5962 55.9492 33.6951 55.7515 33.8928C55.5537 34.0842 55.4419 34.3616 55.4165 34.7251L57.5215 34.3137C57.4575 34.0969 57.3364 33.9248 57.1577 33.7971C56.9795 33.6631 56.7656 33.5962 56.5171 33.5962ZM94.2446 33.5962C93.9321 33.5962 93.6768 33.6951 93.479 33.8928C93.2812 34.0842 93.1699 34.3616 93.144 34.7251L95.249 34.3137C95.1851 34.0969 95.064 33.9248 94.8853 33.7971Q94.8223 33.7498 94.7529 33.7134L94.7529 33.7134Q94.5293 33.5962 94.2446 33.5962ZM131.262 33.5962C130.949 33.5962 130.694 33.6951 130.497 33.8928C130.299 34.0842 130.187 34.3616 130.162 34.7251L132.267 34.3137C132.203 34.0969 132.082 33.9248 131.903 33.7971C131.724 33.6631 131.511 33.5962 131.262 33.5962ZM43.8979 36.2178Q44.2046 36.2178 44.4351 36.0857Q44.5723 36.0076 44.6826 35.8828C44.8867 35.6533 44.9888 35.3535 44.9888 34.9834C44.9888 34.6135 44.8867 34.3169 44.6826 34.0938C44.4849 33.864 44.2231 33.7493 43.8979 33.7493C43.5728 33.7493 43.3115 33.864 43.1138 34.0938C42.916 34.3169 42.8169 34.6135 42.8169 34.9834C42.8169 35.3599 42.9126 35.6597 43.104 35.8828C43.3018 36.106 43.5664 36.2178 43.8979 36.2178ZM50.2109 36.2178C50.5298 36.2178 50.7915 36.1094 50.9956 35.8923C51.1997 35.6692 51.3018 35.363 51.3018 34.9739C51.3018 34.5913 51.1997 34.2915 50.9956 34.0747C50.7915 33.8577 50.5298 33.7493 50.2109 33.7493C49.8921 33.7493 49.6304 33.8577 49.4263 34.0747C49.2222 34.2915 49.1201 34.5913 49.1201 34.9739C49.1201 35.363 49.2222 35.6692 49.4263 35.8923C49.6304 36.1094 49.8921 36.2178 50.2109 36.2178ZM85.6475 36.4856C85.896 36.4856 86.0845 36.4121 86.2119 36.2656C86.3394 36.1189 86.4033 35.9243 86.4033 35.6819C86.4033 35.4458 86.3394 35.261 86.2119 35.127C86.0845 34.9932 85.8994 34.926 85.6567 34.926C85.4849 34.926 85.3315 34.958 85.1978 35.0217C85.064 35.0854 84.9585 35.1716 84.8818 35.28L84.8818 35.6819C84.8818 35.9307 84.9458 36.1284 85.0732 36.2751C85.2012 36.4155 85.3921 36.4856 85.6475 36.4856ZM145.238 36.4856C145.487 36.4856 145.675 36.4121 145.802 36.2656C145.93 36.1189 145.994 35.9243 145.994 35.6819C145.994 35.4458 145.93 35.261 145.802 35.127C145.675 34.9932 145.49 34.926 145.248 34.926C145.075 34.926 144.922 34.958 144.788 35.0217C144.654 35.0854 144.549 35.1716 144.473 35.28L144.473 35.6819C144.473 35.9307 144.536 36.1284 144.664 36.2751Q144.682 36.2949 144.702 36.3127L144.702 36.3132Q144.892 36.4856 145.238 36.4856Z" fill="#000000" fill-opacity="1.000000" fill-rule="evenodd"/>
		<rect width="25.582315" height="48.322147" transform="translate(-0.188477 0.000000)" fill="#FFFFFF" fill-opacity="0"/>
		<path d="M10.9736 16.2922L5.60059 28.6675L0.678223 28.6675L0.678223 29.7419L5.0459 29.7419C5.0459 29.7419 1.30225 38.0615 0.678223 39.6213C0.0541992 41.1812 1.92627 41.9092 1.92627 41.9092L-0.188477 48.322L0.123535 48.322L8.44287 29.7419L11.8052 29.7419L11.8052 31.1287C11.7661 31.2566 11.854 31.4934 12.4292 31.5608L12.4292 31.5793C12.4907 31.5793 12.5483 31.5779 12.6025 31.575C12.6567 31.5779 12.7148 31.5793 12.7759 31.5793L12.7759 31.5608C13.3511 31.4934 13.4395 31.2566 13.3999 31.1287L13.3999 29.7419L16.7622 29.7419L25.082 48.322L25.394 48.322L23.2793 41.9092C23.2793 41.9092 25.1514 41.1812 24.5273 39.6213C23.9033 38.0615 20.1597 29.7419 20.1597 29.7419L24.5273 29.7419L24.5273 28.6675L19.605 28.6675L14.2319 16.2922L10.9736 16.2922ZM12.6025 20.1968L8.96289 28.6675L11.8052 28.6675L11.8052 27.0728C11.8052 26.7458 12.2646 26.6746 12.6025 26.6809C12.9409 26.6746 13.3999 26.7458 13.3999 27.0728L13.3999 28.6675L16.2427 28.6675L12.6025 20.1968Z" fill="#FF9900" fill-opacity="1.000000" fill-rule="evenodd"/>
		<path d="M13.6777 0L11.5977 0L11.5977 5.22534C8.95459 5.71387 6.95264 8.03076 6.95264 10.8152C6.95264 13.9551 9.49805 16.5002 12.6377 16.5002C15.7773 16.5002 18.3228 13.9551 18.3228 10.8152C18.3228 8.03076 16.3208 5.71387 13.6777 5.22534L13.6777 0ZM16.312 10.8152C16.312 12.8447 14.667 14.4897 12.6377 14.4897C10.6084 14.4897 8.96338 12.8447 8.96338 10.8152C8.96338 8.78589 10.6084 7.14087 12.6377 7.14087C14.667 7.14087 16.312 8.78589 16.312 10.8152Z" fill="#000000" fill-opacity="1.000000" fill-rule="evenodd"/>
	</g>
</svg>
