<svg width="110.000000" height="35.000000" viewBox="0 0 110 35" fill="none" xmlns="http://www.w3.org/2000/svg" xmlns:xlink="http://www.w3.org/1999/xlink">
	<desc>
			Created with Pixso.
	</desc>
	<defs>
		<clipPath id="clip600432_27">
			<rect width="110.000000" height="35.000000" fill="white" fill-opacity="0"/>
		</clipPath>
	</defs>
	<rect width="110.000000" height="35.000000" fill="#FFFFFF" fill-opacity="0"/>
	<g clip-path="url(#clip600432_27)">
		<path d="M34.0305 17.7595C33.4917 18.0688 32.8384 18.3132 32.0701 18.4927C31.302 18.6724 30.5039 18.762 29.676 18.762C28.5588 18.762 27.6062 18.6274 26.8181 18.3582C26.0398 18.0886 25.4514 17.7146 25.0522 17.2358C24.6633 16.7568 24.4688 16.2034 24.4688 15.575Q24.4688 15.0244 24.6697 14.561L24.6697 14.561Q24.769 14.3315 24.9177 14.1233C25.217 13.7043 25.6309 13.3801 26.1597 13.1506Q25.7192 12.925 25.4253 12.5762Q25.3098 12.439 25.217 12.283Q25.1047 12.0798 25.0325 11.8633Q24.9026 11.4739 24.9026 11.041Q24.9026 10.6804 24.9956 10.3457L24.9956 10.3455Q25.1265 9.87451 25.4414 9.45483Q25.9951 8.73657 27.1172 8.30249Q28.2395 7.86865 29.8855 7.86865Q30.7092 7.86865 31.5137 7.99243Q31.7178 8.02393 31.9207 8.06323C32.5889 8.19287 33.1775 8.36743 33.6863 8.58691L32.8782 10.8015Q31.968 10.4001 31.0195 10.2615L31.0195 10.2615Q30.5178 10.188 30.0051 10.188Q28.9429 10.188 28.4192 10.4724Q28.0742 10.6497 27.9563 10.9246Q27.8953 11.0669 27.8953 11.2354Q27.8953 11.5249 28.0305 11.7209Q28.3149 12.1333 29.1973 12.1333L32.1599 12.1333L32.1599 14.3928L29.0027 14.3928Q28.2395 14.3928 27.8506 14.6472Q27.6753 14.7549 27.5789 14.9116Q27.4614 15.1023 27.4614 15.3652Q27.4614 15.5208 27.5146 15.6553Q27.6353 15.9609 28.03 16.1584Q28.5986 16.4426 29.7957 16.4426C30.3643 16.4426 30.948 16.3679 31.5464 16.2183C32.155 16.0586 32.6836 15.8442 33.1326 15.575L34.0305 17.7595ZM83.5276 10.4424L83.5276 17.0713C83.5276 18.5774 83.1187 19.7048 82.3005 20.4529C81.4824 21.2112 80.3054 21.5901 78.769 21.5901C77.9712 21.5901 77.2229 21.5002 76.5247 21.3208C75.8264 21.1414 75.2329 20.877 74.7439 20.5278L75.7764 18.5376C76.1057 18.8069 76.5195 19.0164 77.0183 19.166C77.5271 19.3257 78.0259 19.4055 78.5149 19.4055C79.2629 19.4055 79.8115 19.241 80.1606 18.9116C80.51 18.5825 80.6846 18.0938 80.6846 17.4453L80.6846 17.176C80.1357 17.8145 79.3328 18.1335 78.2754 18.1335C77.5571 18.1335 76.8938 17.9739 76.2852 17.6548C75.6768 17.3254 75.1929 16.8667 74.8337 16.2781C74.4746 15.6797 74.2952 14.9912 74.2952 14.2131C74.2952 13.4451 74.4746 12.7666 74.8337 12.1782Q75.1318 11.6812 75.5449 11.3125Q75.8777 11.0151 76.2852 10.8015C76.8938 10.4724 77.5571 10.3076 78.2754 10.3076C79.4326 10.3076 80.2805 10.6819 80.8191 11.4299L80.8191 10.4424L83.5276 10.4424ZM41.6567 14.303C42.5845 14.6123 43.0483 15.2507 43.0483 16.2183Q43.0483 16.8054 42.802 17.2585Q42.5898 17.6484 42.1953 17.939Q41.3425 18.5525 39.6816 18.5525L35.1177 18.5525L35.1177 10.4424L39.4722 10.4424Q41.0581 10.4424 41.926 10.9961Q42.4038 11.2957 42.623 11.7268Q42.8088 12.0923 42.8088 12.5522C42.8088 12.9412 42.7092 13.2854 42.5098 13.5847C42.3101 13.884 42.0259 14.1233 41.6567 14.303ZM48.2852 15.6646L47.3276 15.6646L47.3276 18.5525L44.4844 18.5525L44.4844 10.4424L47.3276 10.4424L47.3276 13.4351L48.345 13.4351L50.3352 10.4424L53.3428 10.4424L50.6194 14.3328L53.5225 18.5525L50.1707 18.5525L48.2852 15.6646ZM62.7249 10.4424L62.7249 18.5525L59.8818 18.5525L59.8818 12.7019L57.8318 12.7019L57.772 13.9438C57.7319 15.0012 57.6272 15.874 57.4578 16.5625C57.2881 17.2507 57.0088 17.7893 56.6196 18.1785Q56.5398 18.2563 56.4519 18.3235L56.4517 18.3235Q55.8967 18.7471 55.0186 18.7471C54.6694 18.7471 54.2107 18.6821 53.6421 18.5525L53.7617 16.2332C53.9412 16.2532 54.061 16.2632 54.1208 16.2632C54.4302 16.2632 54.6646 16.1633 54.8242 15.9639C54.9836 15.7644 55.0935 15.5 55.1533 15.1709Q55.2432 14.6621 55.2729 13.8242L55.3928 10.4424L62.7249 10.4424ZM72.9851 10.4424L72.9851 18.5525L70.2766 18.5525L70.2766 17.6997C69.9775 18.0188 69.6184 18.2632 69.1992 18.4329C68.7903 18.6025 68.3513 18.6873 67.8826 18.6873C66.8252 18.6873 65.9822 18.3779 65.3538 17.7595C64.7351 17.1411 64.426 16.2134 64.426 14.9763L64.426 10.4424L67.269 10.4424L67.269 14.5125C67.269 15.6797 67.7229 16.2632 68.6306 16.2632C69.0796 16.2632 69.4436 16.1086 69.7231 15.7993C70.0024 15.48 70.1421 14.9963 70.1421 14.3479L70.1421 10.4424L72.9851 10.4424ZM37.6614 13.7043L39.2178 13.7043C39.876 13.7043 40.2053 13.46 40.2053 12.9712C40.2053 12.5024 39.876 12.2678 39.2178 12.2678L37.6614 12.2678L37.6614 13.7043ZM78.9487 15.874C79.4575 15.874 79.8765 15.7195 80.2056 15.4102C80.5449 15.1011 80.7144 14.7019 80.7144 14.2131C80.7144 13.7244 80.5498 13.3303 80.2207 13.031C79.8914 12.7217 79.4675 12.5671 78.9487 12.5671C78.4299 12.5671 78.001 12.7217 77.6619 13.031C77.3328 13.3303 77.168 13.7244 77.168 14.2131C77.168 14.7019 77.3376 15.1011 77.6768 15.4102C78.0161 15.7195 78.4399 15.874 78.9487 15.874ZM39.4272 16.7122C40.1155 16.7122 40.4597 16.4626 40.4597 15.9639Q40.4597 15.6963 40.3313 15.5244Q40.1011 15.2158 39.457 15.2158L37.6614 15.2158L37.6614 16.7122L39.4272 16.7122ZM29.0815 22.5159L29.0815 27.3992L27.7141 27.3992L27.7141 23.6111L25.8586 23.6111L25.8586 27.3992L24.4983 27.3992L24.4983 22.5159L29.0815 22.5159ZM32.0718 23.5554C32.4858 23.5554 32.8462 23.6343 33.1531 23.7925C33.4602 23.9507 33.6951 24.1785 33.8577 24.4761C34.0251 24.7693 34.1089 25.1133 34.1089 25.5085C34.1089 25.8994 34.0322 26.2434 33.8787 26.541C33.7251 26.8342 33.509 27.062 33.23 27.2249Q33.2253 27.2273 33.2209 27.2297Q32.8054 27.4619 32.2603 27.4619C31.8276 27.4619 31.488 27.3293 31.2417 27.0645L31.2417 28.7527L29.9163 28.7527L29.9163 25.5227C29.9163 25.1318 30.0046 24.7878 30.1812 24.4902C30.3579 24.1924 30.6091 23.9622 30.9348 23.7996Q31.4231 23.5554 32.0718 23.5554ZM36.6121 27.4619C36.2075 27.4619 35.8425 27.3782 35.5168 27.2109Q35.2002 27.0481 34.9714 26.803Q34.8477 26.6702 34.7495 26.5132C34.5681 26.2156 34.4775 25.8784 34.4775 25.5017Q34.4775 25.0996 34.6187 24.7556Q34.6733 24.6221 34.7495 24.4971C34.9355 24.1995 35.189 23.9692 35.51 23.8064C35.8354 23.6389 36.2029 23.5554 36.6121 23.5554C37.0215 23.5554 37.3889 23.6389 37.7144 23.8064C38.04 23.9692 38.2935 24.1995 38.4749 24.4971C38.6562 24.79 38.7468 25.125 38.7468 25.5017C38.7468 25.8784 38.6562 26.2156 38.4749 26.5132C38.2935 26.8108 38.04 27.0435 37.7144 27.2109C37.3889 27.3782 37.0215 27.4619 36.6121 27.4619ZM41.3706 26.4504C41.552 26.4504 41.7078 26.4248 41.8381 26.3738C41.9729 26.3225 42.1079 26.2388 42.2427 26.1226L42.9333 26.8481C42.5752 27.2573 42.0403 27.4619 41.3289 27.4619C40.887 27.4619 40.4985 27.3782 40.1638 27.2109C39.8289 27.0435 39.5686 26.8108 39.3826 26.5132C39.2012 26.2156 39.1104 25.8784 39.1104 25.5017C39.1104 25.1296 39.2012 24.7971 39.3826 24.5042C39.5637 24.2065 39.8127 23.9739 40.1289 23.8064C40.4497 23.6389 40.8079 23.5554 41.2031 23.5554Q41.6775 23.5554 42.0796 23.7258Q42.1445 23.7534 42.2078 23.7856C42.5146 23.9343 42.759 24.1553 42.9404 24.4482C43.1216 24.7366 43.2124 25.0808 43.2124 25.4807L40.5127 25.9971C40.6567 26.2993 40.9429 26.4504 41.3706 26.4504ZM53.4226 23.5554C53.8877 23.5554 54.2576 23.6948 54.532 23.9739C54.811 24.2529 54.9504 24.6738 54.9504 25.2366L54.9504 27.3992L53.625 27.3992L53.625 25.4529C53.625 25.1877 53.574 24.9924 53.4717 24.8669C53.3738 24.7412 53.2344 24.6785 53.053 24.6785C52.853 24.6785 52.6926 24.7483 52.5715 24.8877C52.4507 25.0273 52.3901 25.239 52.3901 25.5227L52.3901 27.3992L51.0647 27.3992L51.0647 25.4529C51.0647 24.9365 50.874 24.6785 50.4927 24.6785C50.2881 24.6785 50.1252 24.7483 50.0044 24.8877C49.8835 25.0273 49.823 25.239 49.823 25.5227L49.823 27.3992L48.4976 27.3992L48.4976 23.6182L49.7603 23.6182L49.7603 24.0156C49.8997 23.8623 50.0649 23.7483 50.2556 23.6738C50.4509 23.5947 50.6624 23.5554 50.8904 23.5554C51.1555 23.5554 51.3926 23.6042 51.6021 23.7019Q51.7251 23.7593 51.8298 23.8403L51.8298 23.8403Q51.9924 23.9658 52.1111 24.1482C52.26 23.9575 52.4485 23.811 52.6763 23.7087C52.9041 23.6064 53.1531 23.5554 53.4226 23.5554ZM68.8804 26.4504C69.0618 26.4504 69.2175 26.4248 69.3477 26.3738C69.4827 26.3225 69.6174 26.2388 69.7524 26.1226L70.4431 26.8481C70.085 27.2573 69.55 27.4619 68.8386 27.4619C68.3967 27.4619 68.0083 27.3782 67.6736 27.2109Q67.3135 27.0308 67.0681 26.7505Q66.9712 26.6396 66.8921 26.5132C66.7107 26.2156 66.6201 25.8784 66.6201 25.5017C66.6201 25.1296 66.7107 24.7971 66.8921 24.5042C67.0735 24.2065 67.3223 23.9739 67.6387 23.8064C67.9595 23.6389 68.3176 23.5554 68.7129 23.5554C69.0803 23.5554 69.4153 23.6321 69.7175 23.7856C70.0244 23.9343 70.2686 24.1553 70.45 24.4482C70.6313 24.7366 70.7222 25.0808 70.7222 25.4807L68.0222 25.9971C68.1665 26.2993 68.4524 26.4504 68.8804 26.4504ZM75.2817 27.4619C74.8633 27.4619 74.4888 27.3782 74.1587 27.2109C73.8284 27.0435 73.5703 26.8108 73.3843 26.5132C73.2029 26.2156 73.1123 25.8784 73.1123 25.5017C73.1123 25.125 73.2029 24.79 73.3843 24.4971C73.5703 24.1995 73.8284 23.9692 74.1587 23.8064C74.4888 23.6389 74.8633 23.5554 75.2817 23.5554C75.7097 23.5554 76.0793 23.6484 76.3911 23.8345C76.7026 24.0156 76.9236 24.2693 77.0537 24.5947L76.0283 25.1179Q75.8662 24.7983 75.6108 24.6792Q75.4592 24.6086 75.2749 24.6086Q75.0613 24.6086 74.8906 24.6941Q74.7769 24.751 74.6819 24.8459C74.5283 25.0042 74.4517 25.2227 74.4517 25.5017C74.4517 25.7854 74.5283 26.0085 74.6819 26.1714C74.8401 26.3296 75.0376 26.4087 75.2749 26.4087C75.605 26.4087 75.8562 26.2388 76.0283 25.8994L77.0537 26.4226C76.9236 26.748 76.7026 27.0039 76.3911 27.1899C76.0793 27.3713 75.7097 27.4619 75.2817 27.4619ZM84.2883 27.4619C83.8696 27.4619 83.4954 27.3782 83.165 27.2109C82.835 27.0435 82.5767 26.8108 82.3906 26.5132C82.2092 26.2156 82.1187 25.8784 82.1187 25.5017C82.1187 25.125 82.2092 24.79 82.3906 24.4971C82.5767 24.1995 82.835 23.9692 83.165 23.8064C83.4954 23.6389 83.8696 23.5554 84.2883 23.5554C84.7161 23.5554 85.0859 23.6484 85.3975 23.8345C85.709 24.0156 85.9299 24.2693 86.0603 24.5947L85.0347 25.1179C84.8625 24.7786 84.6116 24.6086 84.2812 24.6086Q84.0679 24.6086 83.897 24.6941Q83.7832 24.751 83.6882 24.8459C83.5349 25.0042 83.458 25.2227 83.458 25.5017C83.458 25.7854 83.5349 26.0085 83.6882 26.1714C83.8464 26.3296 84.0442 26.4087 84.2812 26.4087C84.6116 26.4087 84.8625 26.2388 85.0347 25.8994L86.0603 26.4226C85.9299 26.748 85.709 27.0039 85.3975 27.1899C85.0859 27.3713 84.7161 27.4619 84.2883 27.4619ZM91.5398 23.5554C92.0049 23.5554 92.3745 23.6948 92.6489 23.9739C92.928 24.2529 93.0676 24.6738 93.0676 25.2366L93.0676 27.3992L91.7422 27.3992L91.7422 25.4529C91.7422 25.1877 91.6909 24.9924 91.5886 24.8669C91.491 24.7412 91.3513 24.6785 91.1702 24.6785C90.97 24.6785 90.8096 24.7483 90.6887 24.8877C90.5679 25.0273 90.5073 25.239 90.5073 25.5227L90.5073 27.3992L89.1819 27.3992L89.1819 25.4529C89.1819 24.9365 88.9912 24.6785 88.6099 24.6785C88.4053 24.6785 88.2424 24.7483 88.1213 24.8877C88.0005 25.0273 87.9402 25.239 87.9402 25.5227L87.9402 27.3992L86.6145 27.3992L86.6145 23.6182L87.8772 23.6182L87.8772 24.0156C88.0168 23.8623 88.1819 23.7483 88.3726 23.6738C88.5679 23.5947 88.7795 23.5554 89.0073 23.5554C89.2725 23.5554 89.5098 23.6042 89.719 23.7019Q89.842 23.7593 89.9468 23.8401L89.947 23.8403Q90.1096 23.9658 90.2283 24.1482C90.3772 23.9575 90.5654 23.811 90.7935 23.7087C91.0212 23.6064 91.27 23.5554 91.5398 23.5554ZM95.8723 26.4504C96.0537 26.4504 96.2095 26.4248 96.3396 26.3738C96.4746 26.3225 96.6094 26.2388 96.7444 26.1226L97.4351 26.8481C97.0769 27.2573 96.542 27.4619 95.8303 27.4619C95.3887 27.4619 95.0002 27.3782 94.6655 27.2109Q94.3054 27.0308 94.0601 26.7505L94.0598 26.7502Q93.9629 26.6394 93.884 26.5132C93.7026 26.2156 93.6121 25.8784 93.6121 25.5017C93.6121 25.1296 93.7026 24.7971 93.884 24.5042Q93.9946 24.3225 94.1387 24.1733L94.1389 24.1731Q94.3491 23.9553 94.6306 23.8064C94.9514 23.6389 95.3096 23.5554 95.7048 23.5554C96.0723 23.5554 96.4072 23.6321 96.7095 23.7856C97.0164 23.9343 97.2605 24.1553 97.4419 24.4482C97.6233 24.7366 97.7141 25.0808 97.7141 25.4807L95.0142 25.9971C95.1584 26.2993 95.4443 26.4504 95.8723 26.4504ZM45.6165 26.0527L45.1699 26.0527L45.1699 27.3992L43.8445 27.3992L43.8445 23.6182L45.1699 23.6182L45.1699 25.0134L45.6443 25.0134L46.5723 23.6182L47.9744 23.6182L46.7046 25.4319L48.0581 27.3992L46.4954 27.3992L45.6165 26.0527ZM55.7529 23.6182L57.0715 23.6182L57.0715 25.0203L58.4319 25.0203L58.4319 23.6182L59.7573 23.6182L59.7573 27.3992L58.4319 27.3992L58.4319 26.0737L57.0715 26.0737L57.0715 27.3992L55.7529 27.3992L55.7529 23.6182ZM62.4512 27.5107C61.2002 27.5107 60.5747 26.9736 60.5747 25.8994L60.5747 23.6182L61.8931 23.6182L61.8931 24.8181C61.9907 24.7529 62.1211 24.6995 62.2839 24.6575C62.4512 24.6157 62.6418 24.5947 62.856 24.5947Q63.53 24.5947 63.9241 24.927Q63.9377 24.9385 63.9512 24.9504C64.2163 25.1831 64.3489 25.5295 64.3489 25.99C64.3489 26.4875 64.1768 26.8667 63.8325 27.1272Q63.3232 27.5107 62.4512 27.5107ZM64.6626 23.6182L65.9883 23.6182L65.9883 27.3992L64.6626 27.3992L64.6626 23.6182ZM81.501 23.6182L81.501 27.3992L80.2383 27.3992L80.2383 27.0015C80.0986 27.1504 79.9314 27.2644 79.7358 27.3435C79.5452 27.4224 79.3406 27.4619 79.1221 27.4619C78.6292 27.4619 78.2361 27.3179 77.9431 27.0295C77.6548 26.7412 77.5105 26.3086 77.5105 25.7319L77.5105 23.6182L78.8359 23.6182L78.8359 25.5156C78.8359 26.0598 79.0476 26.3318 79.4709 26.3318C79.6802 26.3318 79.8499 26.2598 79.9802 26.1155C80.1104 25.9668 80.1755 25.7412 80.1755 25.439L80.1755 23.6182L81.501 23.6182ZM102.016 27.3992L102.016 25.4109L101.046 27.0645L100.481 27.0645L99.5391 25.3831L99.5391 27.3992L98.3459 27.3992L98.3459 23.6182L99.7412 23.6182L100.795 25.5923L101.953 23.6182L103.201 23.6182L103.208 27.3992L102.016 27.3992ZM105.903 27.5107C104.652 27.5107 104.026 26.9736 104.026 25.8994L104.026 23.6182L105.344 23.6182L105.344 24.8181C105.442 24.7529 105.573 24.6995 105.735 24.6575C105.903 24.6157 106.093 24.5947 106.307 24.5947C106.772 24.5947 107.137 24.7134 107.403 24.9504C107.668 25.1831 107.8 25.5295 107.8 25.99C107.8 26.4875 107.628 26.8667 107.284 27.1272C106.944 27.3828 106.484 27.5107 105.903 27.5107ZM108.114 23.6182L109.44 23.6182L109.44 27.3992L108.114 27.3992L108.114 23.6182ZM41.2102 24.4971C40.9824 24.4971 40.7964 24.5691 40.6521 24.7134C40.5081 24.8528 40.4265 25.0552 40.408 25.3203L41.9426 25.0203Q41.9031 24.8853 41.8225 24.782Q41.7617 24.7036 41.6777 24.6436Q41.6313 24.6089 41.5811 24.5825L41.5808 24.5825Q41.418 24.4971 41.2102 24.4971ZM68.72 24.4971C68.4919 24.4971 68.3059 24.5691 68.1619 24.7134C68.0176 24.8528 67.9363 25.0552 67.9177 25.3203L69.4524 25.0203C69.406 24.8623 69.3176 24.7366 69.1873 24.6436C69.0571 24.5459 68.9014 24.4971 68.72 24.4971ZM95.7119 24.4971C95.4839 24.4971 95.2979 24.5691 95.1538 24.7134C95.0095 24.8528 94.9282 25.0552 94.9097 25.3203L96.4443 25.0203Q96.4045 24.8853 96.3242 24.782Q96.2634 24.7036 96.1792 24.6436C96.0491 24.5459 95.8933 24.4971 95.7119 24.4971ZM32.009 26.4087C32.2463 26.4087 32.437 26.3271 32.5811 26.1643C32.73 25.9971 32.8044 25.7783 32.8044 25.5085C32.8044 25.239 32.73 25.0227 32.5811 24.8599C32.437 24.6924 32.2463 24.6086 32.009 24.6086C31.7717 24.6086 31.5811 24.6924 31.437 24.8599Q31.4143 24.8855 31.394 24.9128Q31.2207 25.1465 31.2207 25.5085C31.2207 25.783 31.2905 26.0017 31.4299 26.1643C31.5742 26.3271 31.7671 26.4087 32.009 26.4087ZM36.6121 26.4087C36.8447 26.4087 37.0354 26.3296 37.1841 26.1714C37.333 26.0085 37.4075 25.7854 37.4075 25.5017C37.4075 25.2227 37.333 25.0042 37.1841 24.8459C37.0354 24.6877 36.8447 24.6086 36.6121 24.6086C36.3796 24.6086 36.189 24.6877 36.04 24.8459C35.8914 25.0042 35.8169 25.2227 35.8169 25.5017C35.8169 25.7854 35.8914 26.0085 36.04 26.1714C36.189 26.3296 36.3796 26.4087 36.6121 26.4087ZM62.4512 26.604C62.6326 26.604 62.7698 26.5505 62.8628 26.4434Q62.875 26.4294 62.8862 26.4143Q63.0024 26.2598 63.0024 26.0178C63.0024 25.8459 62.9558 25.7109 62.8628 25.6133C62.7698 25.5156 62.635 25.4668 62.4583 25.4668C62.3328 25.4668 62.2209 25.49 62.1233 25.5366C62.0256 25.583 61.949 25.6458 61.8931 25.7249L61.8931 26.0178Q61.8931 26.2766 62.0193 26.4346L62.0203 26.4355Q62.0264 26.4431 62.0327 26.4504C62.1257 26.5527 62.2651 26.604 62.4512 26.604ZM105.903 26.604C106.084 26.604 106.221 26.5505 106.314 26.4434C106.407 26.3364 106.454 26.1946 106.454 26.0178C106.454 25.8459 106.407 25.7109 106.314 25.6133C106.221 25.5156 106.086 25.4668 105.91 25.4668C105.784 25.4668 105.672 25.49 105.575 25.5366C105.477 25.583 105.4 25.6458 105.344 25.7249L105.344 26.0178Q105.344 26.2766 105.471 26.4346L105.474 26.4377Q105.479 26.4443 105.484 26.4504C105.577 26.5527 105.717 26.604 105.903 26.604Z" fill="#000000" fill-opacity="1.000000" fill-rule="evenodd"/>
		<rect width="18.653770" height="35.234898" transform="translate(-0.137695 0.000000)" fill="#FFFFFF" fill-opacity="0"/>
		<path d="M8.00122 11.8796L4.0835 20.9033L0.494141 20.9033L0.494141 21.6868L3.67896 21.6868C3.67896 21.6868 0.949219 27.7529 0.494141 28.8904C0.0393066 30.0278 1.40405 30.5586 1.40405 30.5586L-0.137695 35.2349L0.0898438 35.2349L6.15601 21.6868L8.60791 21.6868L8.60791 22.6978C8.5791 22.791 8.64331 22.9639 9.06274 23.0129L9.06274 23.0264C9.10742 23.0264 9.14966 23.0254 9.18921 23.0234C9.22876 23.0254 9.27075 23.0264 9.31567 23.0264L9.31567 23.0129C9.73511 22.9639 9.79932 22.791 9.77051 22.6978L9.77051 21.6868L12.2224 21.6868L18.2886 35.2349L18.5161 35.2349L16.9741 30.5586C16.9741 30.5586 18.3391 30.0278 17.8843 28.8904C17.4292 27.7529 14.6995 21.6868 14.6995 21.6868L17.8843 21.6868L17.8843 20.9033L14.2949 20.9033L10.3772 11.8796L8.00122 11.8796ZM9.18921 14.7266L6.53516 20.9033L8.60791 20.9033L8.60791 19.7405C8.60791 19.502 8.94263 19.4502 9.18921 19.4548C9.43579 19.4502 9.77051 19.502 9.77051 19.7405L9.77051 20.9033L11.8433 20.9033L9.18921 14.7266Z" fill="#FF9900" fill-opacity="1.000000" fill-rule="evenodd"/>
		<path d="M9.9729 0L8.4563 0L8.4563 3.81006C6.52905 4.16626 5.06934 5.85571 5.06934 7.88623C5.06934 10.1755 6.92529 12.0315 9.2146 12.0315C11.5039 12.0315 13.3599 10.1755 13.3599 7.88623C13.3599 5.85571 11.9001 4.16626 9.9729 3.81006L9.9729 0ZM11.8938 7.88623C11.8938 9.36597 10.6943 10.5654 9.2146 10.5654C7.73486 10.5654 6.5354 9.36597 6.5354 7.88623C6.5354 6.40649 7.73486 5.20679 9.2146 5.20679C10.6943 5.20679 11.8938 6.40649 11.8938 7.88623Z" fill="#000000" fill-opacity="1.000000" fill-rule="evenodd"/>
	</g>
</svg>
