<svg width="60.000000" height="60.000000" viewBox="0 0 60 60" fill="none" xmlns="http://www.w3.org/2000/svg" xmlns:xlink="http://www.w3.org/1999/xlink">
	<desc>
			Created with Pixso.
	</desc>
	<defs/>
	<path d="M60 30C60 46.5685 46.5684 60 30 60C13.4316 60 0 46.5685 0 30C0 13.4315 13.4316 0 30 0C46.5684 0 60 13.4315 60 30ZM30.1836 9.14729C24.2002 9.14729 19.3496 13.9978 19.3496 19.9811C19.3496 25.9645 24.2002 30.8154 30.1836 30.8154C36.167 30.8154 41.0176 25.9645 41.0176 19.9811C41.0176 13.9978 36.167 9.14729 30.1836 9.14729ZM30.1836 24.4598C27.7109 24.4598 25.7051 22.4546 25.7051 19.9812C25.7051 17.5079 27.7109 15.5028 30.1836 15.5028C32.6572 15.5028 34.6621 17.5079 34.6621 19.9812C34.6621 22.4546 32.6572 24.4598 30.1836 24.4598ZM34.0088 39.4358C38.3457 38.5522 40.9453 36.4983 41.082 36.3881C42.3516 35.3702 42.5557 33.5163 41.5371 32.247C40.5195 30.9778 38.666 30.7739 37.3965 31.7916C37.3701 31.8133 34.5977 33.9398 30.0371 33.9429C25.4756 33.9398 22.6445 31.8133 22.6182 31.7916C21.3486 30.7739 19.4951 30.9778 18.4775 32.247C17.459 33.5163 17.6631 35.3702 18.9326 36.3881C19.0723 36.4998 21.7783 38.6073 26.2373 39.4701L20.0225 45.9643C18.8936 47.1355 18.9277 49.0003 20.0986 50.1296C20.6699 50.6808 21.4072 50.9547 22.1436 50.9547C22.915 50.9547 23.6855 50.6532 24.2637 50.0536L30.0371 43.904L36.3926 50.0935C37.5439 51.2432 39.4092 51.2414 40.5586 50.0902C41.708 48.9389 41.707 47.0738 40.5557 45.9243L34.0088 39.4358Z" fill="#666666" fill-opacity="1.000000" fill-rule="evenodd"/>
</svg>
